<svg width="21" height="21" viewBox="0 0 21 21" fill="none" xmlns="http://www.w3.org/2000/svg">
<path d="M13.8329 6.41386C13.7399 6.32013 13.6293 6.24574 13.5075 6.19497C13.3856 6.1442 13.2549 6.11806 13.1229 6.11806C12.9909 6.11806 12.8602 6.1442 12.7383 6.19497C12.6164 6.24574 12.5058 6.32013 12.4129 6.41386L10.1229 8.71386L7.83288 6.41386C7.64458 6.22555 7.38918 6.11977 7.12288 6.11977C6.85658 6.11977 6.60119 6.22555 6.41288 6.41386C6.22458 6.60216 6.11879 6.85756 6.11879 7.12386C6.11879 7.39016 6.22458 7.64555 6.41288 7.83386L8.71288 10.1239L6.41288 12.4139C6.31915 12.5068 6.24476 12.6174 6.19399 12.7393C6.14322 12.8611 6.11708 12.9918 6.11708 13.1239C6.11708 13.2559 6.14322 13.3866 6.19399 13.5084C6.24476 13.6303 6.31915 13.7409 6.41288 13.8339C6.50585 13.9276 6.61645 14.002 6.73831 14.0527C6.86016 14.1035 6.99087 14.1297 7.12288 14.1297C7.25489 14.1297 7.3856 14.1035 7.50746 14.0527C7.62932 14.002 7.73992 13.9276 7.83288 13.8339L10.1229 11.5339L12.4129 13.8339C12.5058 13.9276 12.6164 14.002 12.7383 14.0527C12.8602 14.1035 12.9909 14.1297 13.1229 14.1297C13.2549 14.1297 13.3856 14.1035 13.5075 14.0527C13.6293 14.002 13.7399 13.9276 13.8329 13.8339C13.9266 13.7409 14.001 13.6303 14.0518 13.5084C14.1025 13.3866 14.1287 13.2559 14.1287 13.1239C14.1287 12.9918 14.1025 12.8611 14.0518 12.7393C14.001 12.6174 13.9266 12.5068 13.8329 12.4139L11.5329 10.1239L13.8329 7.83386C13.9266 7.7409 14.001 7.63029 14.0518 7.50844C14.1025 7.38658 14.1287 7.25587 14.1287 7.12386C14.1287 6.99185 14.1025 6.86114 14.0518 6.73928C14.001 6.61742 13.9266 6.50682 13.8329 6.41386ZM17.1929 3.05386C16.2704 2.09876 15.167 1.33693 13.9469 0.812845C12.7269 0.288755 11.4147 0.0128923 10.0869 0.00135413C8.7591 -0.010184 7.44231 0.242833 6.21334 0.745642C4.98438 1.24845 3.86786 1.99098 2.92893 2.92991C1.99001 3.86884 1.24747 4.98535 0.744665 6.21432C0.241856 7.44328 -0.0111606 8.76008 0.000377568 10.0879C0.0119157 11.4157 0.287778 12.7279 0.811868 13.9479C1.33596 15.1679 2.09778 16.2714 3.05288 17.1939C3.97535 18.149 5.0788 18.9108 6.29884 19.4349C7.51888 19.959 8.83108 20.2348 10.1589 20.2464C11.4867 20.2579 12.8035 20.0049 14.0324 19.5021C15.2614 18.9993 16.3779 18.2567 17.3168 17.3178C18.2558 16.3789 18.9983 15.2624 19.5011 14.0334C20.0039 12.8044 20.2569 11.4876 20.2454 10.1598C20.2339 8.83205 19.958 7.51985 19.4339 6.29981C18.9098 5.07977 18.148 3.97633 17.1929 3.05386ZM15.7829 15.7839C14.4749 17.0933 12.7534 17.9087 10.9117 18.0912C9.06993 18.2737 7.22189 17.8119 5.6824 16.7846C4.14292 15.7573 3.00724 14.2281 2.46886 12.4573C1.93047 10.6866 2.02269 8.784 2.7298 7.07364C3.4369 5.36329 4.71516 3.95101 6.34677 3.07742C7.97839 2.20383 9.86242 1.92299 11.6779 2.28273C13.4934 2.64247 15.1279 3.62055 16.3031 5.05032C17.4783 6.48009 18.1214 8.2731 18.1229 10.1239C18.1265 11.1751 17.9215 12.2167 17.5198 13.1882C17.1182 14.1598 16.5278 15.042 15.7829 15.7839Z" fill="#CF9F3B"/>
</svg>
