<svg width="18" height="21" viewBox="0 0 18 21" fill="none" xmlns="http://www.w3.org/2000/svg">
<path d="M17 4.24658H13V3.24658C13 2.45093 12.6839 1.68787 12.1213 1.12526C11.5587 0.562653 10.7956 0.246582 10 0.246582H8C7.20435 0.246582 6.44129 0.562653 5.87868 1.12526C5.31607 1.68787 5 2.45093 5 3.24658V4.24658H1C0.734784 4.24658 0.48043 4.35194 0.292893 4.53948C0.105357 4.72701 0 4.98137 0 5.24658C0 5.5118 0.105357 5.76615 0.292893 5.95369C0.48043 6.14122 0.734784 6.24658 1 6.24658H2V17.2466C2 18.0422 2.31607 18.8053 2.87868 19.3679C3.44129 19.9305 4.20435 20.2466 5 20.2466H13C13.7956 20.2466 14.5587 19.9305 15.1213 19.3679C15.6839 18.8053 16 18.0422 16 17.2466V6.24658H17C17.2652 6.24658 17.5196 6.14122 17.7071 5.95369C17.8946 5.76615 18 5.5118 18 5.24658C18 4.98137 17.8946 4.72701 17.7071 4.53948C17.5196 4.35194 17.2652 4.24658 17 4.24658ZM7 3.24658C7 2.98137 7.10536 2.72701 7.29289 2.53948C7.48043 2.35194 7.73478 2.24658 8 2.24658H10C10.2652 2.24658 10.5196 2.35194 10.7071 2.53948C10.8946 2.72701 11 2.98137 11 3.24658V4.24658H7V3.24658ZM14 17.2466C14 17.5118 13.8946 17.7662 13.7071 17.9537C13.5196 18.1412 13.2652 18.2466 13 18.2466H5C4.73478 18.2466 4.48043 18.1412 4.29289 17.9537C4.10536 17.7662 4 17.5118 4 17.2466V6.24658H14V17.2466Z" fill="#CF9F3B"/>
</svg>
