<svg width="19" height="19" viewBox="0 0 19 19" fill="none" xmlns="http://www.w3.org/2000/svg">
<path d="M13.9926 2.96602C14.2102 3.08953 14.4677 3.12199 14.7091 3.05632C14.9505 2.99065 15.1561 2.83218 15.2811 2.61549C15.3645 2.47092 15.4847 2.35097 15.6294 2.26779C15.7742 2.1846 15.9383 2.14114 16.1053 2.14181C16.3565 2.14181 16.5975 2.24162 16.7752 2.41928C16.9528 2.59695 17.0526 2.83792 17.0526 3.08917C17.0526 3.34043 16.9528 3.5814 16.7752 3.75907C16.5975 3.93673 16.3565 4.03654 16.1053 4.03654C15.854 4.03654 15.613 4.13636 15.4354 4.31402C15.2577 4.49169 15.1579 4.73265 15.1579 4.98391C15.1579 5.23517 15.2577 5.47614 15.4354 5.6538C15.613 5.83147 15.854 5.93128 16.1053 5.93128C16.6041 5.93096 17.094 5.79936 17.5259 5.54971C17.9577 5.30006 18.3163 4.94115 18.5655 4.50904C18.8147 4.07694 18.9457 3.58685 18.9455 3.08804C18.9453 2.58922 18.8139 2.09924 18.5643 1.66733C18.3148 1.23543 17.9559 0.876803 17.5239 0.627499C17.0919 0.378194 16.6018 0.24699 16.103 0.24707C15.6042 0.24715 15.1142 0.378511 14.6822 0.627954C14.2502 0.877396 13.8915 1.23613 13.6421 1.66812C13.5795 1.77625 13.5388 1.8957 13.5226 2.0196C13.5063 2.14349 13.5147 2.26938 13.5473 2.39002C13.5798 2.51066 13.636 2.62366 13.7124 2.72251C13.7888 2.82137 13.8841 2.90413 13.9926 2.96602ZM18 10.6681C17.7487 10.6681 17.5078 10.7679 17.3301 10.9456C17.1524 11.1233 17.0526 11.3642 17.0526 11.6155V15.405C17.0526 15.6562 16.9528 15.8972 16.7752 16.0749C16.5975 16.2525 16.3565 16.3523 16.1053 16.3523H2.84211C2.59085 16.3523 2.34988 16.2525 2.17221 16.0749C1.99455 15.8972 1.89474 15.6562 1.89474 15.405V6.3197L7.46526 11.8997C7.99816 12.4319 8.72052 12.7309 9.47368 12.7309C10.2268 12.7309 10.9492 12.4319 11.4821 11.8997L13.0358 10.346C13.1241 10.2577 13.1942 10.1528 13.242 10.0374C13.2898 9.922 13.3144 9.7983 13.3144 9.67339C13.3144 9.54847 13.2898 9.42477 13.242 9.30936C13.1942 9.19395 13.1241 9.08908 13.0358 9.00075C12.9475 8.91242 12.8426 8.84235 12.7272 8.79455C12.6118 8.74675 12.4881 8.72214 12.3632 8.72214C12.2382 8.72214 12.1145 8.74675 11.9991 8.79455C11.8837 8.84235 11.7789 8.91242 11.6905 9.00075L10.1368 10.5544C9.95975 10.728 9.72166 10.8253 9.47368 10.8253C9.22571 10.8253 8.98762 10.728 8.81053 10.5544L3.23053 4.98391H10.4211C10.6723 4.98391 10.9133 4.8841 11.0909 4.70643C11.2686 4.52877 11.3684 4.2878 11.3684 4.03654C11.3684 3.78529 11.2686 3.54432 11.0909 3.36665C10.9133 3.18899 10.6723 3.08917 10.4211 3.08917H2.84211C2.08833 3.08917 1.36543 3.38861 0.832433 3.92161C0.299435 4.45461 0 5.17751 0 5.93128V15.405C0 16.1587 0.299435 16.8816 0.832433 17.4146C1.36543 17.9476 2.08833 18.2471 2.84211 18.2471H16.1053C16.859 18.2471 17.5819 17.9476 18.1149 17.4146C18.6479 16.8816 18.9474 16.1587 18.9474 15.405V11.6155C18.9474 11.3642 18.8476 11.1233 18.6699 10.9456C18.4922 10.7679 18.2513 10.6681 18 10.6681ZM15.4326 7.15339C15.3438 7.24146 15.2734 7.34624 15.2253 7.46168C15.1772 7.57713 15.1524 7.70095 15.1524 7.82602C15.1524 7.95108 15.1772 8.07491 15.2253 8.19035C15.2734 8.3058 15.3438 8.41058 15.4326 8.49865L15.5747 8.61233C15.6275 8.64819 15.6849 8.67686 15.7453 8.6976C15.799 8.72491 15.8564 8.74407 15.9158 8.75444H16.1053C16.2934 8.75553 16.4777 8.70056 16.6345 8.59654C16.7913 8.49252 16.9136 8.34416 16.9857 8.17037C17.0579 7.99658 17.0766 7.80524 17.0396 7.62074C17.0026 7.43624 16.9115 7.26695 16.7779 7.13444C16.6886 7.04687 16.5828 6.97786 16.4667 6.93138C16.3506 6.8849 16.2264 6.86188 16.1013 6.86364C15.9762 6.8654 15.8528 6.89191 15.738 6.94164C15.6232 6.99137 15.5194 7.06334 15.4326 7.15339Z" fill="#CF9F3B"/>
</svg>
