<svg width="18" height="16" viewBox="0 0 18 16" fill="none" xmlns="http://www.w3.org/2000/svg">
<path d="M2.25 15.2466H15.75C16.3465 15.2458 16.9183 15.0085 17.3401 14.5867C17.7619 14.1649 17.9992 13.5931 18 12.9966V2.49658C17.9992 1.90009 17.7619 1.32825 17.3401 0.906468C16.9183 0.484684 16.3465 0.247376 15.75 0.246582L2.25 0.246582C1.65351 0.247376 1.08167 0.484684 0.659887 0.906468C0.238102 1.32825 0.000793738 1.90009 0 2.49658V12.9966C0.000793738 13.5931 0.238102 14.1649 0.659887 14.5867C1.08167 15.0085 1.65351 15.2458 2.25 15.2466ZM13.5 5.80658L16.5 8.80658V12.9966C16.4997 13.1954 16.4206 13.386 16.28 13.5266C16.1394 13.6672 15.9488 13.7463 15.75 13.7466H2.25C2.09783 13.7454 1.94958 13.6983 1.82466 13.6114C1.69975 13.5245 1.60401 13.4018 1.55 13.2596L6 8.80758L8.25 11.0576L13.5 5.80658ZM6 7.30658C5.8029 7.30594 5.60764 7.34442 5.42551 7.41977C5.24339 7.49513 5.07803 7.60587 4.939 7.74558L1.5 11.1856V2.49658C1.50026 2.29775 1.57937 2.10714 1.71996 1.96654C1.86056 1.82595 2.05117 1.74685 2.25 1.74658H15.75C15.9488 1.74685 16.1394 1.82595 16.28 1.96654C16.4206 2.10714 16.4997 2.29775 16.5 2.49658V6.68658L14.56 4.74658C14.4212 4.6069 14.256 4.49617 14.074 4.42081C13.8921 4.34545 13.6969 4.30697 13.5 4.30758C13.3031 4.30708 13.108 4.34561 12.9261 4.42097C12.7441 4.49632 12.5789 4.60699 12.44 4.74658L8.25 8.93558L7.06 7.74558C6.92109 7.60599 6.75589 7.49532 6.57395 7.41997C6.392 7.34461 6.19693 7.30608 6 7.30658ZM4.5 6.24658C4.89782 6.24658 5.27936 6.08855 5.56066 5.80724C5.84196 5.52594 6 5.14441 6 4.74658C6 4.34876 5.84196 3.96723 5.56066 3.68592C5.27936 3.40462 4.89782 3.24658 4.5 3.24658C4.10218 3.24658 3.72064 3.40462 3.43934 3.68592C3.15804 3.96723 3 4.34876 3 4.74658C3 5.14441 3.15804 5.52594 3.43934 5.80724C3.72064 6.08855 4.10218 6.24658 4.5 6.24658Z" fill="#CF9F3B"/>
</svg>
