<svg width="12" height="16" viewBox="0 0 12 16" fill="none" xmlns="http://www.w3.org/2000/svg">
<path d="M3.75 6.74658H4.5C4.69891 6.74658 4.88968 6.66756 5.03033 6.52691C5.17098 6.38626 5.25 6.19549 5.25 5.99658C5.25 5.79767 5.17098 5.6069 5.03033 5.46625C4.88968 5.3256 4.69891 5.24658 4.5 5.24658H3.75C3.55109 5.24658 3.36032 5.3256 3.21967 5.46625C3.07902 5.6069 3 5.79767 3 5.99658C3 6.19549 3.07902 6.38626 3.21967 6.52691C3.36032 6.66756 3.55109 6.74658 3.75 6.74658ZM7.65784 8.53625L6.40283 10.1501L5.75171 9.56421C5.67579 9.49586 5.58671 9.44374 5.48992 9.41106C5.39313 9.37837 5.29069 9.36581 5.18887 9.37414C5.08706 9.38248 4.98802 9.41153 4.89784 9.45951C4.80765 9.5075 4.72822 9.57341 4.66443 9.6532L3.16443 11.5282C3.10249 11.6051 3.05634 11.6934 3.02861 11.7881C3.00089 11.8828 2.99214 11.9821 3.00286 12.0802C3.01359 12.1783 3.04358 12.2734 3.09112 12.3599C3.13866 12.4464 3.20281 12.5227 3.27989 12.5843C3.35697 12.646 3.44547 12.6918 3.5403 12.7192C3.63513 12.7465 3.73444 12.7549 3.83252 12.7438C3.9306 12.7327 4.02552 12.7024 4.11185 12.6545C4.19817 12.6067 4.2742 12.5423 4.33557 12.465L5.33899 11.2107L5.99817 11.8039C6.07474 11.8729 6.16471 11.9253 6.26245 11.9579C6.36018 11.9906 6.4636 12.0027 6.56624 11.9936C6.66888 11.9845 6.76854 11.9544 6.859 11.905C6.94947 11.8557 7.0288 11.7882 7.09204 11.7069L8.84216 9.45689C8.96425 9.29984 9.01895 9.10072 8.99422 8.90334C8.9695 8.70596 8.86738 8.52648 8.71033 8.4044C8.63256 8.34395 8.54365 8.2994 8.44868 8.27331C8.3537 8.24722 8.25451 8.2401 8.15678 8.25234C7.9594 8.27706 7.77992 8.3792 7.65784 8.53625ZM11.9907 5.9503C11.9809 5.76948 11.9065 5.59818 11.7811 5.4675L11.78 5.46608L7.28051 0.966535L7.27913 0.96544C7.21663 0.905054 7.144 0.856109 7.06457 0.820832C7.04215 0.810332 7.01882 0.8044 6.99523 0.796082C6.93075 0.773415 6.86344 0.759828 6.79523 0.75571C6.77944 0.754727 6.76602 0.746582 6.75 0.746582H2.25C1.65346 0.747233 1.08154 0.984495 0.659729 1.40631C0.237913 1.82813 0.000651147 2.40004 0 2.99658V13.4966C0.000651147 14.0931 0.237913 14.665 0.659729 15.0869C1.08154 15.5087 1.65346 15.7459 2.25 15.7466H9.75C10.3465 15.7459 10.9185 15.5087 11.3403 15.0869C11.7621 14.665 11.9993 14.0931 12 13.4966V5.99658C12 5.98015 11.9918 5.96646 11.9907 5.9503ZM7.5 3.30713L9.43946 5.24658H8.25C8.05117 5.24632 7.86055 5.16722 7.71995 5.02663C7.57936 4.88603 7.50026 4.69542 7.5 4.49658V3.30713ZM10.5 13.4966C10.4997 13.6954 10.4206 13.886 10.28 14.0266C10.1394 14.1672 9.94883 14.2463 9.75 14.2466H2.25C2.05117 14.2463 1.86055 14.1672 1.71995 14.0266C1.57936 13.886 1.50026 13.6954 1.5 13.4966V2.99658C1.50026 2.79775 1.57936 2.60713 1.71995 2.46654C1.86055 2.32594 2.05117 2.24684 2.25 2.24658H6V4.49658C6.00065 5.09312 6.23791 5.66504 6.65973 6.08685C7.08154 6.50867 7.65346 6.74593 8.25 6.74658H10.5V13.4966Z" fill="#CF9F3B"/>
</svg>
