<svg width="18" height="18" viewBox="0 0 18 18" fill="none" xmlns="http://www.w3.org/2000/svg">
<path d="M12.2744 9.63937C13.1562 8.94556 13.7999 7.99414 14.1158 6.91748C14.4317 5.84082 14.4043 4.69246 14.0371 3.63215C13.67 2.57184 12.9816 1.65232 12.0675 1.00152C11.1535 0.350708 10.0593 0.000976563 8.93728 0.000976562C7.81522 0.000976562 6.72106 0.350708 5.80702 1.00152C4.89298 1.65232 4.20451 2.57184 3.83741 3.63215C3.4703 4.69246 3.44281 5.84082 3.75875 6.91748C4.07469 7.99414 4.71836 8.94556 5.6002 9.63937C4.08914 10.2448 2.77069 11.2489 1.7854 12.5446C0.800116 13.8404 0.184929 15.3792 0.00542553 16.9971C-0.00756785 17.1152 0.00283191 17.2348 0.0360308 17.3489C0.0692296 17.463 0.124577 17.5694 0.198914 17.6621C0.349044 17.8494 0.567407 17.9693 0.805964 17.9955C1.04452 18.0218 1.28373 17.9522 1.47097 17.8021C1.65821 17.6519 1.77815 17.4336 1.80439 17.195C2.0019 15.4367 2.84031 13.8128 4.15943 12.6336C5.47855 11.4543 7.18589 10.8024 8.95527 10.8024C10.7246 10.8024 12.432 11.4543 13.7511 12.6336C15.0702 13.8128 15.9086 15.4367 16.1061 17.195C16.1306 17.416 16.2361 17.6202 16.4022 17.768C16.5683 17.9158 16.7833 17.9969 17.0056 17.9955H17.1046C17.3404 17.9684 17.5559 17.8492 17.7041 17.6639C17.8524 17.4785 17.9214 17.2421 17.8961 17.0061C17.7158 15.3836 17.0973 13.8408 16.1069 12.5431C15.1166 11.2453 13.7917 10.2415 12.2744 9.63937ZM8.93728 9.00073C8.22567 9.00073 7.53005 8.78972 6.93838 8.39437C6.3467 7.99903 5.88554 7.43711 5.61323 6.77968C5.34091 6.12224 5.26966 5.39882 5.40848 4.70089C5.54731 4.00296 5.88998 3.36187 6.39316 2.85869C6.89634 2.35551 7.53743 2.01284 8.23536 1.87402C8.93329 1.73519 9.65671 1.80644 10.3141 2.07876C10.9716 2.35108 11.5335 2.81223 11.9288 3.40391C12.3242 3.99558 12.5352 4.69121 12.5352 5.40281C12.5352 6.35704 12.1561 7.27218 11.4814 7.94693C10.8067 8.62167 9.89151 9.00073 8.93728 9.00073Z" fill="#CF9F3B"/>
</svg>
