<svg width="21" height="21" viewBox="0 0 21 21" fill="none" xmlns="http://www.w3.org/2000/svg">
<path d="M13.8329 6.41374C13.7399 6.32001 13.6293 6.24561 13.5075 6.19485C13.3856 6.14408 13.2549 6.11794 13.1229 6.11794C12.9909 6.11794 12.8602 6.14408 12.7383 6.19485C12.6164 6.24561 12.5058 6.32001 12.4129 6.41374L10.1229 8.71374L7.83288 6.41374C7.64458 6.22543 7.38918 6.11964 7.12288 6.11964C6.85658 6.11964 6.60119 6.22543 6.41288 6.41374C6.22458 6.60204 6.11879 6.85743 6.11879 7.12374C6.11879 7.39004 6.22458 7.64543 6.41288 7.83374L8.71288 10.1237L6.41288 12.4137C6.31915 12.5067 6.24476 12.6173 6.19399 12.7392C6.14322 12.861 6.11708 12.9917 6.11708 13.1237C6.11708 13.2557 6.14322 13.3865 6.19399 13.5083C6.24476 13.6302 6.31915 13.7408 6.41288 13.8337C6.50585 13.9275 6.61645 14.0019 6.73831 14.0526C6.86016 14.1034 6.99087 14.1295 7.12288 14.1295C7.25489 14.1295 7.3856 14.1034 7.50746 14.0526C7.62932 14.0019 7.73992 13.9275 7.83288 13.8337L10.1229 11.5337L12.4129 13.8337C12.5058 13.9275 12.6164 14.0019 12.7383 14.0526C12.8602 14.1034 12.9909 14.1295 13.1229 14.1295C13.2549 14.1295 13.3856 14.1034 13.5075 14.0526C13.6293 14.0019 13.7399 13.9275 13.8329 13.8337C13.9266 13.7408 14.001 13.6302 14.0518 13.5083C14.1025 13.3865 14.1287 13.2557 14.1287 13.1237C14.1287 12.9917 14.1025 12.861 14.0518 12.7392C14.001 12.6173 13.9266 12.5067 13.8329 12.4137L11.5329 10.1237L13.8329 7.83374C13.9266 7.74077 14.001 7.63017 14.0518 7.50831C14.1025 7.38645 14.1287 7.25575 14.1287 7.12374C14.1287 6.99172 14.1025 6.86102 14.0518 6.73916C14.001 6.6173 13.9266 6.5067 13.8329 6.41374ZM17.1929 3.05374C16.2704 2.09863 15.167 1.33681 13.9469 0.812723C12.7269 0.288633 11.4147 0.0127702 10.0869 0.00123206C8.7591 -0.0103061 7.44231 0.242711 6.21334 0.74552C4.98438 1.24833 3.86786 1.99086 2.92893 2.92979C1.99001 3.86871 1.24747 4.98523 0.744665 6.2142C0.241856 7.44316 -0.0111606 8.75996 0.000377568 10.0877C0.0119157 11.4155 0.287778 12.7277 0.811868 13.9478C1.33596 15.1678 2.09778 16.2713 3.05288 17.1937C3.97535 18.1488 5.0788 18.9107 6.29884 19.4348C7.51888 19.9588 8.83108 20.2347 10.1589 20.2462C11.4867 20.2578 12.8035 20.0048 14.0324 19.502C15.2614 18.9991 16.3779 18.2566 17.3168 17.3177C18.2558 16.3788 18.9983 15.2622 19.5011 14.0333C20.0039 12.8043 20.2569 11.4875 20.2454 10.1597C20.2339 8.83193 19.958 7.51973 19.4339 6.29969C18.9098 5.07965 18.148 3.9762 17.1929 3.05374ZM15.7829 15.7837C14.4749 17.0932 12.7534 17.9086 10.9117 18.091C9.06993 18.2735 7.22189 17.8118 5.6824 16.7845C4.14292 15.7572 3.00724 14.2279 2.46886 12.4572C1.93047 10.6865 2.02269 8.78388 2.7298 7.07352C3.4369 5.36316 4.71516 3.95088 6.34677 3.0773C7.97839 2.20371 9.86242 1.92287 11.6779 2.28261C13.4934 2.64235 15.1279 3.62043 16.3031 5.0502C17.4783 6.47997 18.1214 8.27297 18.1229 10.1237C18.1265 11.175 17.9215 12.2166 17.5198 13.1881C17.1182 14.1597 16.5278 15.0419 15.7829 15.7837Z" fill="white"/>
</svg>
