<svg width="18" height="16" viewBox="0 0 18 16" fill="none" xmlns="http://www.w3.org/2000/svg">
<path d="M8.31303 3.72995C8.4189 3.62193 8.56146 3.56215 8.70905 3.56215C8.85665 3.56215 8.9992 3.62193 9.10508 3.72995C9.21112 3.83814 9.27155 3.98591 9.27155 4.141V8.29685C9.27155 8.45194 9.21112 8.59971 9.10508 8.7079C8.9992 8.81592 8.85664 8.8757 8.70905 8.8757C8.56146 8.8757 8.4189 8.81592 8.31303 8.7079C8.20698 8.59971 8.14655 8.45194 8.14655 8.29685V4.141C8.14655 3.98591 8.20698 3.83814 8.31303 3.72995Z" fill="white"/>
<path d="M11.8044 4.91734C11.9103 4.80931 12.0528 4.74954 12.2004 4.74954C12.348 4.74954 12.4906 4.80931 12.5965 4.91734C12.7025 5.02553 12.7629 5.1733 12.7629 5.32839V8.29685C12.7629 8.45194 12.7025 8.59971 12.5965 8.7079C12.4906 8.81592 12.348 8.8757 12.2004 8.8757C12.0528 8.8757 11.9103 8.81592 11.8044 8.7079C11.6984 8.59971 11.6379 8.45194 11.6379 8.29685V5.32839C11.6379 5.1733 11.6984 5.02553 11.8044 4.91734Z" fill="white"/>
<path d="M4.82165 6.10472C4.92753 5.99669 5.07008 5.93692 5.21767 5.93692C5.36527 5.93692 5.50782 5.99669 5.6137 6.10472C5.71974 6.21291 5.78017 6.36068 5.78017 6.51577V8.29685C5.78017 8.45194 5.71974 8.59971 5.6137 8.7079C5.50782 8.81592 5.36527 8.8757 5.21767 8.8757C5.07008 8.8757 4.92753 8.81592 4.82165 8.7079C4.7156 8.59971 4.65517 8.45194 4.65517 8.29685V6.51577C4.65517 6.36068 4.7156 6.21291 4.82165 6.10472Z" fill="white"/>
<path fill-rule="evenodd" clip-rule="evenodd" d="M0.25169 0.254743C0.412133 0.0910483 0.628691 0 0.853448 0H17.1466C17.3713 0 17.5879 0.0910483 17.7483 0.254743C17.9089 0.418604 18 0.641877 18 0.875696V11.5622C18 11.796 17.9089 12.0192 17.7483 12.1831C17.5879 12.3468 17.3713 12.4378 17.1466 12.4378H12.181V14.8423H13.9461C14.0937 14.8423 14.2363 14.9021 14.3421 15.0101C14.4482 15.1183 14.5086 15.2661 14.5086 15.4212C14.5086 15.5762 14.4482 15.724 14.3421 15.8322C14.2363 15.9402 14.0937 16 13.9461 16H4.05388C3.90629 16 3.76373 15.9402 3.65785 15.8322C3.55181 15.724 3.49138 15.5762 3.49138 15.4212C3.49138 15.2661 3.55181 15.1183 3.65785 15.0101C3.76373 14.9021 3.90629 14.8423 4.05388 14.8423H5.81897V12.4378H0.853448C0.628691 12.4378 0.412133 12.3468 0.25169 12.1831C0.0910847 12.0192 0 11.796 0 11.5622V0.875696C0 0.641877 0.0910848 0.418604 0.25169 0.254743ZM16.875 1.1577H1.125V11.2801H16.875V1.1577ZM11.056 12.4378H6.94397V14.8423H11.056V12.4378Z" fill="white"/>
</svg>
