<svg width="18" height="21" viewBox="0 0 18 21" fill="none" xmlns="http://www.w3.org/2000/svg">
<path d="M17 4.24661H13V3.24661C13 2.45096 12.6839 1.6879 12.1213 1.12529C11.5587 0.562683 10.7956 0.246613 10 0.246613H8C7.20435 0.246613 6.44129 0.562683 5.87868 1.12529C5.31607 1.6879 5 2.45096 5 3.24661V4.24661H1C0.734784 4.24661 0.48043 4.35197 0.292893 4.53951C0.105357 4.72704 0 4.9814 0 5.24661C0 5.51183 0.105357 5.76618 0.292893 5.95372C0.48043 6.14126 0.734784 6.24661 1 6.24661H2V17.2466C2 18.0423 2.31607 18.8053 2.87868 19.3679C3.44129 19.9305 4.20435 20.2466 5 20.2466H13C13.7956 20.2466 14.5587 19.9305 15.1213 19.3679C15.6839 18.8053 16 18.0423 16 17.2466V6.24661H17C17.2652 6.24661 17.5196 6.14126 17.7071 5.95372C17.8946 5.76618 18 5.51183 18 5.24661C18 4.9814 17.8946 4.72704 17.7071 4.53951C17.5196 4.35197 17.2652 4.24661 17 4.24661ZM7 3.24661C7 2.9814 7.10536 2.72704 7.29289 2.53951C7.48043 2.35197 7.73478 2.24661 8 2.24661H10C10.2652 2.24661 10.5196 2.35197 10.7071 2.53951C10.8946 2.72704 11 2.9814 11 3.24661V4.24661H7V3.24661ZM14 17.2466C14 17.5118 13.8946 17.7662 13.7071 17.9537C13.5196 18.1413 13.2652 18.2466 13 18.2466H5C4.73478 18.2466 4.48043 18.1413 4.29289 17.9537C4.10536 17.7662 4 17.5118 4 17.2466V6.24661H14V17.2466Z" fill="white"/>
</svg>
