<svg width="19" height="19" viewBox="0 0 19 19" fill="none" xmlns="http://www.w3.org/2000/svg">
<path d="M13.9926 2.96556C14.2102 3.08907 14.4677 3.12153 14.7091 3.05586C14.9505 2.9902 15.1561 2.83173 15.2811 2.61503C15.3645 2.47046 15.4847 2.35051 15.6294 2.26733C15.7742 2.18415 15.9383 2.14069 16.1053 2.14135C16.3565 2.14135 16.5975 2.24116 16.7752 2.41883C16.9528 2.59649 17.0526 2.83746 17.0526 3.08872C17.0526 3.33997 16.9528 3.58094 16.7752 3.75861C16.5975 3.93627 16.3565 4.03609 16.1053 4.03609C15.854 4.03609 15.613 4.1359 15.4354 4.31356C15.2577 4.49123 15.1579 4.7322 15.1579 4.98345C15.1579 5.23471 15.2577 5.47568 15.4354 5.65334C15.613 5.83101 15.854 5.93082 16.1053 5.93082C16.6041 5.9305 17.094 5.79891 17.5259 5.54926C17.9577 5.29961 18.3163 4.94069 18.5655 4.50859C18.8147 4.07648 18.9457 3.5864 18.9455 3.08758C18.9453 2.58876 18.8139 2.09878 18.5643 1.66688C18.3148 1.23497 17.9559 0.876345 17.5239 0.627041C17.0919 0.377736 16.6018 0.246533 16.103 0.246613C15.6042 0.246692 15.1142 0.378053 14.6822 0.627496C14.2502 0.876939 13.8915 1.23568 13.6421 1.66766C13.5795 1.77579 13.5388 1.89524 13.5226 2.01914C13.5063 2.14303 13.5147 2.26892 13.5473 2.38956C13.5798 2.5102 13.636 2.6232 13.7124 2.72206C13.7888 2.82091 13.8841 2.90367 13.9926 2.96556ZM18 10.6677C17.7487 10.6677 17.5078 10.7675 17.3301 10.9451C17.1524 11.1228 17.0526 11.3638 17.0526 11.615V15.4045C17.0526 15.6558 16.9528 15.8967 16.7752 16.0744C16.5975 16.2521 16.3565 16.3519 16.1053 16.3519H2.84211C2.59085 16.3519 2.34988 16.2521 2.17221 16.0744C1.99455 15.8967 1.89474 15.6558 1.89474 15.4045V6.31924L7.46526 11.8992C7.99816 12.4315 8.72052 12.7304 9.47368 12.7304C10.2268 12.7304 10.9492 12.4315 11.4821 11.8992L13.0358 10.3456C13.1241 10.2572 13.1942 10.1524 13.242 10.037C13.2898 9.92154 13.3144 9.79785 13.3144 9.67293C13.3144 9.54801 13.2898 9.42431 13.242 9.3089C13.1942 9.19349 13.1241 9.08863 13.0358 9.0003C12.9475 8.91196 12.8426 8.8419 12.7272 8.79409C12.6118 8.74629 12.4881 8.72168 12.3632 8.72168C12.2382 8.72168 12.1145 8.74629 11.9991 8.79409C11.8837 8.8419 11.7789 8.91196 11.6905 9.0003L10.1368 10.554C9.95975 10.7276 9.72166 10.8248 9.47368 10.8248C9.22571 10.8248 8.98762 10.7276 8.81053 10.554L3.23053 4.98345H10.4211C10.6723 4.98345 10.9133 4.88364 11.0909 4.70598C11.2686 4.52831 11.3684 4.28734 11.3684 4.03609C11.3684 3.78483 11.2686 3.54386 11.0909 3.3662C10.9133 3.18853 10.6723 3.08872 10.4211 3.08872H2.84211C2.08833 3.08872 1.36543 3.38815 0.832433 3.92115C0.299435 4.45415 0 5.17705 0 5.93082V15.4045C0 16.1583 0.299435 16.8812 0.832433 17.4142C1.36543 17.9472 2.08833 18.2466 2.84211 18.2466H16.1053C16.859 18.2466 17.5819 17.9472 18.1149 17.4142C18.6479 16.8812 18.9474 16.1583 18.9474 15.4045V11.615C18.9474 11.3638 18.8476 11.1228 18.6699 10.9451C18.4922 10.7675 18.2513 10.6677 18 10.6677ZM15.4326 7.15293C15.3438 7.241 15.2734 7.34578 15.2253 7.46122C15.1772 7.57667 15.1524 7.7005 15.1524 7.82556C15.1524 7.95062 15.1772 8.07445 15.2253 8.1899C15.2734 8.30534 15.3438 8.41012 15.4326 8.49819L15.5747 8.61187C15.6275 8.64773 15.6849 8.6764 15.7453 8.69714C15.799 8.72445 15.8564 8.74361 15.9158 8.75398H16.1053C16.2934 8.75507 16.4777 8.70011 16.6345 8.59608C16.7913 8.49206 16.9136 8.3437 16.9857 8.16991C17.0579 7.99612 17.0766 7.80478 17.0396 7.62028C17.0026 7.43579 16.9115 7.26649 16.7779 7.13398C16.6886 7.04641 16.5828 6.9774 16.4667 6.93092C16.3506 6.88445 16.2264 6.86142 16.1013 6.86319C15.9762 6.86495 15.8528 6.89146 15.738 6.94119C15.6232 6.99092 15.5194 7.06288 15.4326 7.15293Z" fill="white"/>
</svg>
