<svg width="18" height="16" viewBox="0 0 18 16" fill="none" xmlns="http://www.w3.org/2000/svg">
<path d="M2.25 15.2466H15.75C16.3465 15.2458 16.9183 15.0085 17.3401 14.5867C17.7619 14.1649 17.9992 13.5931 18 12.9966V2.49661C17.9992 1.90012 17.7619 1.32828 17.3401 0.906499C16.9183 0.484714 16.3465 0.247406 15.75 0.246613L2.25 0.246613C1.65351 0.247406 1.08167 0.484714 0.659887 0.906499C0.238102 1.32828 0.000793738 1.90012 0 2.49661V12.9966C0.000793738 13.5931 0.238102 14.1649 0.659887 14.5867C1.08167 15.0085 1.65351 15.2458 2.25 15.2466ZM13.5 5.80661L16.5 8.80661V12.9966C16.4997 13.1954 16.4206 13.3861 16.28 13.5267C16.1394 13.6672 15.9488 13.7463 15.75 13.7466H2.25C2.09783 13.7454 1.94958 13.6983 1.82466 13.6114C1.69975 13.5245 1.60401 13.4019 1.55 13.2596L6 8.80761L8.25 11.0576L13.5 5.80661ZM6 7.30661C5.8029 7.30597 5.60764 7.34445 5.42551 7.4198C5.24339 7.49516 5.07803 7.6059 4.939 7.74561L1.5 11.1856V2.49661C1.50026 2.29778 1.57937 2.10717 1.71996 1.96657C1.86056 1.82598 2.05117 1.74688 2.25 1.74661H15.75C15.9488 1.74688 16.1394 1.82598 16.28 1.96657C16.4206 2.10717 16.4997 2.29778 16.5 2.49661V6.68661L14.56 4.74661C14.4212 4.60693 14.256 4.4962 14.074 4.42084C13.8921 4.34548 13.6969 4.307 13.5 4.30761C13.3031 4.30711 13.108 4.34564 12.9261 4.421C12.7441 4.49635 12.5789 4.60702 12.44 4.74661L8.25 8.93561L7.06 7.74561C6.92109 7.60602 6.75589 7.49535 6.57395 7.42C6.392 7.34464 6.19693 7.30611 6 7.30661ZM4.5 6.24661C4.89782 6.24661 5.27936 6.08858 5.56066 5.80727C5.84196 5.52597 6 5.14444 6 4.74661C6 4.34879 5.84196 3.96726 5.56066 3.68595C5.27936 3.40465 4.89782 3.24661 4.5 3.24661C4.10218 3.24661 3.72064 3.40465 3.43934 3.68595C3.15804 3.96726 3 4.34879 3 4.74661C3 5.14444 3.15804 5.52597 3.43934 5.80727C3.72064 6.08858 4.10218 6.24661 4.5 6.24661Z" fill="white"/>
</svg>
