<svg width="18" height="19" viewBox="0 0 18 19" fill="none" xmlns="http://www.w3.org/2000/svg">
<path d="M6.75 7.74661H7.5C7.69891 7.74661 7.88968 7.66759 8.03033 7.52694C8.17098 7.38629 8.25 7.19552 8.25 6.99661C8.25 6.7977 8.17098 6.60694 8.03033 6.46628C7.88968 6.32563 7.69891 6.24661 7.5 6.24661H6.75C6.55109 6.24661 6.36032 6.32563 6.21967 6.46628C6.07902 6.60694 6 6.7977 6 6.99661C6 7.19552 6.07902 7.38629 6.21967 7.52694C6.36032 7.66759 6.55109 7.74661 6.75 7.74661ZM10.6578 9.53629L9.40283 11.1502L8.75171 10.5642C8.67579 10.4959 8.58671 10.4438 8.48992 10.4111C8.39313 10.3784 8.29069 10.3658 8.18887 10.3742C8.08706 10.3825 7.98802 10.4116 7.89784 10.4595C7.80765 10.5075 7.72822 10.5734 7.66443 10.6532L6.16443 12.5282C6.10249 12.6051 6.05634 12.6934 6.02861 12.7881C6.00089 12.8829 5.99214 12.9821 6.00286 13.0803C6.01359 13.1784 6.04358 13.2734 6.09112 13.3599C6.13866 13.4464 6.20281 13.5227 6.27989 13.5843C6.35697 13.646 6.44547 13.6918 6.5403 13.7192C6.63513 13.7466 6.73444 13.755 6.83252 13.7439C6.9306 13.7328 7.02552 13.7024 7.11185 13.6546C7.19817 13.6067 7.2742 13.5423 7.33557 13.465L8.33899 12.2107L8.99817 12.804C9.07474 12.8729 9.16471 12.9253 9.26245 12.958C9.36018 12.9906 9.4636 13.0028 9.56624 12.9937C9.66888 12.9845 9.76854 12.9544 9.859 12.9051C9.94947 12.8557 10.0288 12.7883 10.092 12.7069L11.8422 10.4569C11.9642 10.2999 12.0189 10.1007 11.9942 9.90337C11.9695 9.70599 11.8674 9.52651 11.7103 9.40443C11.6326 9.34398 11.5437 9.29943 11.4487 9.27334C11.3537 9.24725 11.2545 9.24013 11.1568 9.25237C10.9594 9.27709 10.7799 9.37923 10.6578 9.53629ZM14.9907 6.95033C14.9809 6.76951 14.9065 6.59821 14.7811 6.46753L14.78 6.46611L10.2805 1.96657L10.2791 1.96547C10.2166 1.90508 10.144 1.85614 10.0646 1.82086C10.0421 1.81036 10.0188 1.80443 9.99523 1.79611C9.93075 1.77345 9.86344 1.75986 9.79523 1.75574C9.77944 1.75476 9.76602 1.74661 9.75 1.74661H5.25C4.65346 1.74726 4.08154 1.98453 3.65973 2.40634C3.23791 2.82816 3.00065 3.40008 3 3.99661V14.4966C3.00065 15.0932 3.23791 15.6651 3.65973 16.0869C4.08154 16.5087 4.65346 16.746 5.25 16.7466H12.75C13.3465 16.746 13.9185 16.5087 14.3403 16.0869C14.7621 15.6651 14.9993 15.0932 15 14.4966V6.99661C15 6.98018 14.9918 6.96649 14.9907 6.95033ZM10.5 4.30716L12.4395 6.24661H11.25C11.0512 6.24635 10.8606 6.16725 10.72 6.02666C10.5794 5.88606 10.5003 5.69545 10.5 5.49661V4.30716ZM13.5 14.4966C13.4997 14.6954 13.4206 14.8861 13.28 15.0267C13.1394 15.1673 12.9488 15.2464 12.75 15.2466H5.25C5.05117 15.2464 4.86055 15.1673 4.71995 15.0267C4.57936 14.8861 4.50026 14.6954 4.5 14.4966V3.99661C4.50026 3.79778 4.57936 3.60716 4.71995 3.46657C4.86055 3.32597 5.05117 3.24687 5.25 3.24661H9V5.49661C9.00065 6.09315 9.23791 6.66507 9.65973 7.08688C10.0815 7.5087 10.6535 7.74596 11.25 7.74661H13.5V14.4966Z" fill="white"/>
</svg>
