<svg width="18" height="18" viewBox="0 0 18 18" fill="none" xmlns="http://www.w3.org/2000/svg">
<path d="M12.2744 9.63924C13.1562 8.94544 13.7999 7.99402 14.1158 6.91736C14.4317 5.8407 14.4043 4.69233 14.0371 3.63203C13.67 2.57172 12.9816 1.6522 12.0675 1.00139C11.1535 0.350586 10.0593 0.000854492 8.93728 0.000854492C7.81522 0.000854492 6.72106 0.350586 5.80702 1.00139C4.89298 1.6522 4.20451 2.57172 3.83741 3.63203C3.4703 4.69233 3.44281 5.8407 3.75875 6.91736C4.07469 7.99402 4.71836 8.94544 5.6002 9.63924C4.08914 10.2446 2.77069 11.2487 1.7854 12.5445C0.800116 13.8403 0.184929 15.3791 0.00542553 16.997C-0.00756785 17.1151 0.00283191 17.2346 0.0360308 17.3487C0.0692296 17.4629 0.124577 17.5693 0.198914 17.662C0.349044 17.8493 0.567407 17.9692 0.805964 17.9954C1.04452 18.0217 1.28373 17.9521 1.47097 17.8019C1.65821 17.6518 1.77815 17.4334 1.80439 17.1949C2.0019 15.4366 2.84031 13.8127 4.15943 12.6334C5.47855 11.4542 7.18589 10.8023 8.95527 10.8023C10.7246 10.8023 12.432 11.4542 13.7511 12.6334C15.0702 13.8127 15.9086 15.4366 16.1061 17.1949C16.1306 17.4159 16.2361 17.62 16.4022 17.7679C16.5683 17.9157 16.7833 17.9968 17.0056 17.9954H17.1046C17.3404 17.9683 17.5559 17.8491 17.7041 17.6637C17.8524 17.4784 17.9214 17.242 17.8961 17.006C17.7158 15.3835 17.0973 13.8407 16.1069 12.543C15.1166 11.2452 13.7917 10.2414 12.2744 9.63924ZM8.93728 9.00061C8.22567 9.00061 7.53005 8.7896 6.93838 8.39425C6.3467 7.99891 5.88554 7.43699 5.61323 6.77955C5.34091 6.12212 5.26966 5.39869 5.40848 4.70077C5.54731 4.00284 5.88998 3.36175 6.39316 2.85857C6.89634 2.35539 7.53743 2.01272 8.23536 1.87389C8.93329 1.73507 9.65671 1.80632 10.3141 2.07864C10.9716 2.35095 11.5335 2.81211 11.9288 3.40379C12.3242 3.99546 12.5352 4.69108 12.5352 5.40269C12.5352 6.35692 12.1561 7.27206 11.4814 7.9468C10.8067 8.62155 9.89151 9.00061 8.93728 9.00061Z" fill="white"/>
</svg>
