<svg width="96" height="24" viewBox="0 0 96 24" fill="none" xmlns="http://www.w3.org/2000/svg">
<path d="M51.71 8.28983C51.617 8.19611 51.5064 8.12171 51.3845 8.07094C51.2627 8.02017 51.132 7.99404 51 7.99404C50.8679 7.99404 50.7372 8.02017 50.6154 8.07094C50.4935 8.12171 50.3829 8.19611 50.29 8.28983L48 10.5898L45.71 8.28983C45.5217 8.10153 45.2663 7.99574 45 7.99574C44.7337 7.99574 44.4783 8.10153 44.29 8.28983C44.1017 8.47814 43.9959 8.73353 43.9959 8.99984C43.9959 9.26614 44.1017 9.52153 44.29 9.70984L46.59 11.9998L44.29 14.2898C44.1962 14.3828 44.1218 14.4934 44.0711 14.6153C44.0203 14.7371 43.9942 14.8678 43.9942 14.9998C43.9942 15.1318 44.0203 15.2626 44.0711 15.3844C44.1218 15.5063 44.1962 15.6169 44.29 15.7098C44.3829 15.8036 44.4935 15.878 44.6154 15.9287C44.7372 15.9795 44.8679 16.0056 45 16.0056C45.132 16.0056 45.2627 15.9795 45.3845 15.9287C45.5064 15.878 45.617 15.8036 45.71 15.7098L48 13.4098L50.29 15.7098C50.3829 15.8036 50.4935 15.878 50.6154 15.9287C50.7372 15.9795 50.8679 16.0056 51 16.0056C51.132 16.0056 51.2627 15.9795 51.3845 15.9287C51.5064 15.878 51.617 15.8036 51.71 15.7098C51.8037 15.6169 51.8781 15.5063 51.9288 15.3844C51.9796 15.2626 52.0058 15.1318 52.0058 14.9998C52.0058 14.8678 51.9796 14.7371 51.9288 14.6153C51.8781 14.4934 51.8037 14.3828 51.71 14.2898L49.41 11.9998L51.71 9.70984C51.8037 9.61687 51.8781 9.50627 51.9288 9.38441C51.9796 9.26255 52.0058 9.13185 52.0058 8.99984C52.0058 8.86782 51.9796 8.73712 51.9288 8.61526C51.8781 8.4934 51.8037 8.3828 51.71 8.28983ZM55.07 4.92984C54.1475 3.97473 53.044 3.21291 51.824 2.68882C50.604 2.16473 49.2918 1.88887 47.964 1.87733C46.6362 1.86579 45.3194 2.11881 44.0904 2.62162C42.8615 3.12443 41.7449 3.86696 40.806 4.80589C39.8671 5.74481 39.1245 6.86133 38.6217 8.09029C38.1189 9.31926 37.8659 10.6361 37.8775 11.9638C37.889 13.2916 38.1649 14.6038 38.6889 15.8239C39.213 17.0439 39.9749 18.1474 40.93 19.0698C41.8524 20.0249 42.9559 20.7868 44.1759 21.3109C45.396 21.8349 46.7082 22.1108 48.0359 22.1223C49.3637 22.1339 50.6805 21.8809 51.9095 21.3781C53.1385 20.8752 54.255 20.1327 55.1939 19.1938C56.1328 18.2549 56.8754 17.1383 57.3782 15.9094C57.881 14.6804 58.134 13.3636 58.1225 12.0358C58.1109 10.708 57.8351 9.39583 57.311 8.17579C56.7869 6.95575 56.0251 5.8523 55.07 4.92984ZM53.66 17.6598C52.352 18.9692 50.6305 19.7847 48.7888 19.9671C46.947 20.1496 45.099 19.6879 43.5595 18.6606C42.02 17.6333 40.8843 16.104 40.3459 14.3333C39.8075 12.5626 39.8998 10.66 40.6069 8.94962C41.314 7.23926 42.5922 5.82698 44.2238 4.9534C45.8555 4.07981 47.7395 3.79897 49.555 4.15871C51.3704 4.51845 53.005 5.49653 54.1802 6.9263C55.3554 8.35607 55.9985 10.1491 56 11.9998C56.0035 13.0511 55.7985 14.0927 55.3969 15.0642C54.9952 16.0358 54.4049 16.918 53.66 17.6598Z" fill="#FFC961"/>
</svg>
