<svg width="23" height="24" viewBox="0 0 23 24" fill="none" xmlns="http://www.w3.org/2000/svg">
<circle cx="11.125" cy="12" r="11.125" fill="white"/>
<path d="M17.0028 7.10492V8.31911C17.003 8.78799 16.9108 9.25231 16.7314 9.68555C16.5521 10.1188 16.2892 10.5125 15.9577 10.8441C15.6262 11.1757 15.2327 11.4387 14.7995 11.6182C14.3663 11.7977 13.902 11.89 13.4331 11.89H12.9341L13.4887 11.3179C14.2741 11.3026 15.0222 10.9799 15.5724 10.4193C16.1226 9.85865 16.4311 9.10464 16.4317 8.31911V7.39049H14.2904L14.3618 6.81909H16.7172C16.7548 6.81909 16.7919 6.82649 16.8266 6.84085C16.8612 6.85522 16.8927 6.87628 16.9193 6.90282C16.9458 6.92937 16.9668 6.96088 16.9811 6.99556C16.9955 7.03023 17.0028 7.06739 17.0028 7.10492Z" fill="#E8A615"/>
<path d="M13.0766 15.3306V15.9613H9.36469V15.3306C9.36469 15.3053 9.37145 15.2805 9.38427 15.2586C9.39708 15.2368 9.41549 15.2188 9.43759 15.2064L9.71889 15.0478C9.95799 14.9131 10.157 14.7172 10.2954 14.4803C10.4339 14.2433 10.5068 13.9738 10.5067 13.6994V13.033H11.9346V13.6994C11.9345 13.9738 12.0075 14.2433 12.1459 14.4803C12.2844 14.7172 12.4833 14.9131 12.7224 15.0478L13.0037 15.2064C13.0258 15.2188 13.0442 15.2368 13.0571 15.2586C13.0699 15.2805 13.0766 15.3053 13.0766 15.3306Z" fill="#E8A615"/>
<path d="M13.0766 15.3306V15.9613H12.7197V15.3306C12.7197 15.3053 12.7129 15.2805 12.7001 15.2586C12.6873 15.2368 12.6689 15.2188 12.6468 15.2064L12.3657 15.0478C12.1265 14.9132 11.9275 14.7173 11.789 14.4804C11.6505 14.2434 11.5775 13.9739 11.5776 13.6994V13.033H11.9346V13.6994C11.9345 13.9738 12.0075 14.2433 12.1459 14.4803C12.2844 14.7172 12.4833 14.9131 12.7224 15.0478L13.0037 15.2064C13.0258 15.2188 13.0443 15.2368 13.0571 15.2586C13.0699 15.2805 13.0766 15.3053 13.0766 15.3306Z" fill="#B7791D"/>
<path d="M12.3626 12.4756V12.8899C12.3626 12.9846 12.325 13.0754 12.2581 13.1424C12.1912 13.2094 12.1004 13.247 12.0057 13.2471H10.4355C10.3408 13.247 10.25 13.2094 10.1831 13.1424C10.1162 13.0754 10.0786 12.9846 10.0786 12.8899V12.4756H12.3626Z" fill="#E8A615"/>
<path d="M11.9346 13.2468H10.507V13.4567H11.9346V13.2468Z" fill="#B7791D"/>
<path d="M13.6476 15.8183V18.3181H8.79382V15.8183C8.79396 15.7805 8.80904 15.7443 8.83579 15.7175C8.86254 15.6908 8.89878 15.6757 8.93661 15.6755H13.5048C13.5426 15.6757 13.5789 15.6908 13.6056 15.7175C13.6324 15.7443 13.6474 15.7805 13.6476 15.8183Z" fill="#343B49"/>
<path d="M13.6478 15.8183V18.3181H13.3625V15.8183C13.3623 15.7805 13.3472 15.7443 13.3205 15.7175C13.2937 15.6908 13.2575 15.6757 13.2197 15.6755H13.505C13.5428 15.6757 13.5791 15.6908 13.6058 15.7175C13.6326 15.7443 13.6476 15.7805 13.6478 15.8183Z" fill="#262D38"/>
<path d="M13.9331 18.1035H8.5082C8.42935 18.1035 8.36542 18.1674 8.36542 18.2463V18.5321C8.36542 18.611 8.42935 18.6749 8.5082 18.6749H13.9331C14.012 18.6749 14.0759 18.611 14.0759 18.5321V18.2463C14.0759 18.1674 14.012 18.1035 13.9331 18.1035Z" fill="#262D38"/>
<path d="M14.0759 18.2463V18.5319C14.0759 18.5697 14.0608 18.6061 14.0341 18.6329C14.0073 18.6597 13.971 18.6748 13.9332 18.6749H13.6476C13.6855 18.6748 13.7217 18.6597 13.7485 18.6329C13.7752 18.6061 13.7903 18.5697 13.7904 18.5319V18.2463C13.7903 18.2085 13.7752 18.1722 13.7485 18.1454C13.7217 18.1186 13.6854 18.1036 13.6476 18.1035H13.9332C13.971 18.1036 14.0072 18.1187 14.034 18.1455C14.0607 18.1722 14.0758 18.2085 14.0759 18.2463Z" fill="#171C23"/>
<path d="M12.7909 16.2471H9.65011C9.57125 16.2471 9.50732 16.311 9.50732 16.3899V17.3899C9.50732 17.4687 9.57125 17.5327 9.65011 17.5327H12.7909C12.8698 17.5327 12.9337 17.4687 12.9337 17.3899V16.3899C12.9337 16.311 12.8698 16.2471 12.7909 16.2471Z" fill="#E8A615"/>
<path d="M12.3627 12.4756V12.8899C12.3627 12.9846 12.3251 13.0754 12.2581 13.1424C12.1912 13.2094 12.1004 13.247 12.0057 13.2471H11.7204C11.8151 13.247 11.9058 13.2093 11.9727 13.1423C12.0395 13.0753 12.0771 12.9845 12.0771 12.8899V12.4756H12.3627Z" fill="#B7791D"/>
<path d="M9.72182 11.89H9.00864C8.0619 11.89 7.15394 11.5139 6.4845 10.8445C5.81505 10.1751 5.43896 9.2671 5.43896 8.32036V7.10492C5.43893 7.06739 5.44629 7.03023 5.46063 6.99556C5.47497 6.96088 5.496 6.92937 5.52252 6.90282C5.54904 6.87628 5.58053 6.85522 5.6152 6.84085C5.64986 6.82649 5.68702 6.81909 5.72454 6.81909H8.08002V7.39049H6.01011V8.31911C6.01069 9.10464 6.31919 9.85865 6.8694 10.4193C7.41962 10.9799 8.16769 11.3026 8.95308 11.3179L9.72182 11.89Z" fill="#E8A615"/>
<path d="M14.7186 6.2478V6.53338C14.7186 10.0043 13.1524 12.818 11.2208 12.818C9.28915 12.818 7.72302 10.004 7.72302 6.53338V6.2478H14.7186Z" fill="#E8A615"/>
<path d="M7.75508 7.39049H7.46951C7.45543 7.20279 7.44596 7.01232 7.4411 6.81909H7.72642C7.73128 7.01216 7.74084 7.20262 7.75508 7.39049Z" fill="#B7791D"/>
<path d="M9.39065 11.8906H9.10508C8.93829 11.7057 8.78695 11.5075 8.65259 11.2979C8.75189 11.3098 8.85173 11.3167 8.95174 11.3185C9.08248 11.5206 9.22926 11.712 9.39065 11.8906Z" fill="#B7791D"/>
<path d="M12.3626 12.4756V12.6186C12.0044 12.8406 11.6203 12.9613 11.2206 12.9613C10.8209 12.9613 10.4368 12.8406 10.0786 12.6186V12.4756C10.4368 12.6978 10.8209 12.8185 11.2206 12.8185C11.6203 12.8185 12.0044 12.6978 12.3626 12.4756Z" fill="#B7791D"/>
<path d="M14.7185 6.2478V6.53338C14.7185 9.89591 13.2486 12.642 11.4002 12.8105C13.1961 12.6398 13.8613 9.8944 13.8613 6.53338V6.2478H14.7185Z" fill="#B7791D"/>
<path d="M15.0752 6.17668C15.0753 6.22358 15.0662 6.27006 15.0483 6.31342C15.0305 6.35679 15.0042 6.3962 14.9711 6.42937C14.9379 6.46255 14.8985 6.48885 14.8552 6.50674C14.8118 6.52464 14.7653 6.53378 14.7184 6.53365H7.7229C7.6752 6.53491 7.62774 6.52661 7.58331 6.50924C7.53888 6.49186 7.49838 6.46576 7.4642 6.43247C7.43002 6.39919 7.40286 6.3594 7.38431 6.31544C7.36576 6.27149 7.3562 6.22426 7.3562 6.17655C7.3562 6.12885 7.36576 6.08162 7.38431 6.03767C7.40286 5.99371 7.43002 5.95392 7.4642 5.92063C7.49838 5.88735 7.53888 5.86125 7.58331 5.84387C7.62774 5.8265 7.6752 5.8182 7.7229 5.81946H14.7184C14.7653 5.81949 14.8117 5.82876 14.855 5.84673C14.8983 5.8647 14.9377 5.89102 14.9708 5.92419C15.0039 5.95736 15.0302 5.99673 15.0481 6.04006C15.066 6.08338 15.0752 6.1298 15.0752 6.17668Z" fill="#E8A615"/>
<path d="M14.7188 6.53345C14.7188 6.62923 14.7173 6.72425 14.7151 6.81902H7.72679C7.72453 6.72425 7.72302 6.62923 7.72302 6.53345H14.7188Z" fill="#B7791D"/>
<path d="M15.0751 6.17704C15.0753 6.22395 15.0662 6.27042 15.0483 6.31379C15.0305 6.35715 15.0042 6.39656 14.9711 6.42974C14.9379 6.46291 14.8985 6.48921 14.8552 6.5071C14.8118 6.525 14.7653 6.53414 14.7184 6.53401H13.9331C14.0262 6.53154 14.1146 6.49283 14.1796 6.42614C14.2445 6.35944 14.2808 6.27002 14.2808 6.17692C14.2808 6.08382 14.2445 5.9944 14.1796 5.9277C14.1146 5.861 14.0262 5.82229 13.9331 5.81982H14.7184C14.7653 5.81986 14.8117 5.82912 14.855 5.84709C14.8983 5.86506 14.9376 5.89138 14.9708 5.92456C15.0039 5.95773 15.0302 5.9971 15.0481 6.04042C15.066 6.08374 15.0752 6.13017 15.0751 6.17704Z" fill="#B7791D"/>
<path d="M12.9341 16.3899V17.3899C12.934 17.4277 12.9189 17.4639 12.8921 17.4907C12.8654 17.5174 12.8292 17.5325 12.7913 17.5327H9.95746C10.5341 17.5211 12.4344 17.3984 12.4344 16.2471H12.7913C12.8292 16.2472 12.8654 16.2623 12.8921 16.289C12.9189 16.3158 12.934 16.352 12.9341 16.3899Z" fill="#B7791D"/>
<path d="M9.65021 17.0312V16.448C9.65017 16.4403 9.65166 16.4327 9.65458 16.4256C9.65749 16.4185 9.66178 16.412 9.6672 16.4066C9.67262 16.4011 9.67906 16.3968 9.68615 16.3939C9.69324 16.3909 9.70085 16.3894 9.70853 16.3894H10.9886C10.9886 16.3894 9.97148 16.4965 9.65021 17.0312Z" fill="#FFCC66"/>
<path d="M8.95459 16.4607V15.8764C8.95459 15.861 8.96073 15.8461 8.97166 15.8351C8.98259 15.8241 8.99742 15.8179 9.01291 15.8179H10.293C10.293 15.8179 9.27561 15.925 8.95459 16.4607Z" fill="#4E5868"/>
<path d="M11.221 12.6038C10.4457 12.6038 8.29584 10.9675 8.03516 7.10449H8.88308C9.09676 11.831 11.221 12.6038 11.221 12.6038Z" fill="#FFCC66"/>
<path d="M9.72186 15.3893C9.72186 15.3893 10.7211 14.7465 10.7211 13.8181V15.3893H9.72186Z" fill="#FFCC66"/>
<path d="M7.86599 5.9624V6.17683H7.50928C7.50928 6.12005 7.5318 6.06558 7.57191 6.02539C7.61201 5.98519 7.66642 5.96254 7.72321 5.9624H7.86599Z" fill="#FFCC66"/>
<path d="M14.9291 6.81909C14.9241 7.01216 14.9148 7.20271 14.9 7.39049H14.2903L14.3617 6.81909H14.9291Z" fill="#B7791D"/>
<path d="M13.7114 11.3064C13.5783 11.5126 13.4291 11.7079 13.2652 11.8906H12.9341L13.1868 11.6307L13.4884 11.3185C13.5636 11.317 13.638 11.3127 13.7114 11.3064Z" fill="#B7791D"/>
</svg>
