<svg width="96" height="24" viewBox="0 0 96 24" fill="none" xmlns="http://www.w3.org/2000/svg">
<path d="M56 6H52V5C52 4.20435 51.6839 3.44129 51.1213 2.87868C50.5587 2.31607 49.7956 2 49 2H47C46.2044 2 45.4413 2.31607 44.8787 2.87868C44.3161 3.44129 44 4.20435 44 5V6H40C39.7348 6 39.4804 6.10536 39.2929 6.29289C39.1054 6.48043 39 6.73478 39 7C39 7.26522 39.1054 7.51957 39.2929 7.70711C39.4804 7.89464 39.7348 8 40 8H41V19C41 19.7956 41.3161 20.5587 41.8787 21.1213C42.4413 21.6839 43.2044 22 44 22H52C52.7956 22 53.5587 21.6839 54.1213 21.1213C54.6839 20.5587 55 19.7956 55 19V8H56C56.2652 8 56.5196 7.89464 56.7071 7.70711C56.8946 7.51957 57 7.26522 57 7C57 6.73478 56.8946 6.48043 56.7071 6.29289C56.5196 6.10536 56.2652 6 56 6ZM46 5C46 4.73478 46.1054 4.48043 46.2929 4.29289C46.4804 4.10536 46.7348 4 47 4H49C49.2652 4 49.5196 4.10536 49.7071 4.29289C49.8946 4.48043 50 4.73478 50 5V6H46V5ZM53 19C53 19.2652 52.8946 19.5196 52.7071 19.7071C52.5196 19.8946 52.2652 20 52 20H44C43.7348 20 43.4804 19.8946 43.2929 19.7071C43.1054 19.5196 43 19.2652 43 19V8H53V19Z" fill="#E23A3A"/>
</svg>
