<svg width="30" height="30" viewBox="0 0 30 30" fill="none" xmlns="http://www.w3.org/2000/svg">
<circle cx="15" cy="15" r="15" fill="white"/>
<path d="M21.6667 11.8268C21.6672 11.7391 21.6503 11.6521 21.6172 11.5709C21.584 11.4897 21.5351 11.4158 21.4733 11.3535L18.6467 8.52684C18.5844 8.46505 18.5105 8.41617 18.4293 8.38299C18.348 8.34982 18.2611 8.333 18.1733 8.33351C18.0856 8.333 17.9986 8.34982 17.9174 8.38299C17.8362 8.41617 17.7623 8.46505 17.7 8.52684L15.8133 10.4135L8.52666 17.7002C8.46487 17.7625 8.41599 17.8363 8.38281 17.9176C8.34963 17.9988 8.33282 18.0858 8.33332 18.1735V21.0002C8.33332 21.177 8.40356 21.3466 8.52859 21.4716C8.65361 21.5966 8.82318 21.6668 8.99999 21.6668H11.8267C11.9199 21.6719 12.0133 21.6573 12.1005 21.624C12.1878 21.5907 12.2671 21.5394 12.3333 21.4735L19.58 14.1868L21.4733 12.3335C21.5342 12.2689 21.5838 12.1945 21.62 12.1135C21.6264 12.0604 21.6264 12.0066 21.62 11.9535C21.6231 11.9225 21.6231 11.8912 21.62 11.8602L21.6667 11.8268ZM11.5533 20.3335H9.66666V18.4468L16.2867 11.8268L18.1733 13.7135L11.5533 20.3335ZM19.1133 12.7735L17.2267 10.8868L18.1733 9.94684L20.0533 11.8268L19.1133 12.7735Z" fill="#161C21"/>
</svg>
