<svg width="11" height="10" viewBox="0 0 11 10" fill="none" xmlns="http://www.w3.org/2000/svg">
<path d="M9.83505 2.05504C9.2909 1.30373 8.54563 0.721379 7.68505 0.37504C6.92635 0.0662223 6.10339 -0.0514615 5.28855 0.0323366C4.4737 0.116135 3.69192 0.398848 3.01195 0.855617C2.33199 1.31239 1.77465 1.92922 1.38896 2.65188C1.00327 3.37454 0.801042 4.1809 0.800049 5.00004C0.800049 5.09504 0.800049 5.19004 0.800049 5.28004C0.843681 6.0621 1.07154 6.82278 1.46505 7.50004C2.10768 8.62796 3.16379 9.46173 4.41005 9.82504C4.86301 9.94761 5.33084 10.0065 5.80005 10C6.1156 10.0015 6.43051 9.97135 6.74005 9.91004C7.76137 9.71234 8.69559 9.20101 9.41258 8.44728C10.1296 7.69355 10.5936 6.73496 10.74 5.70504C10.7776 5.47187 10.7977 5.23621 10.8 5.00004C10.8044 3.94 10.4659 2.90696 9.83505 2.05504ZM8.83505 2.44004L8.30005 3.87004L7.49005 4.09004L6.30005 3.24504V2.32004L7.54505 1.41504C8.05026 1.65866 8.49706 2.00826 8.85505 2.44004H8.83505ZM6.80005 4.83504L6.41005 6.00004H5.18505L4.80005 4.83504L5.80005 4.12004L6.80005 4.83504ZM5.80005 1.00004C5.98587 1.00213 6.17132 1.01717 6.35505 1.04504L5.80005 1.44504L5.24505 1.04504C5.42878 1.01717 5.61423 1.00213 5.80005 1.00004ZM2.24005 3.18504L2.44005 3.84504L1.87505 4.24004C1.94603 3.87283 2.06893 3.5176 2.24005 3.18504ZM2.92505 7.77004L3.61505 7.79504L3.80005 8.46004C3.47876 8.27032 3.18445 8.03824 2.92505 7.77004ZM3.80005 6.80004L2.22505 6.74504C2.02633 6.35477 1.8945 5.93393 1.83505 5.50004L3.08005 4.63004L3.80005 4.94004L4.24505 6.32004L3.80005 6.80004ZM4.23005 4.03504L3.45005 3.68504L2.99505 2.18504C3.30173 1.87182 3.65824 1.61162 4.05005 1.41504L5.30005 2.32004V3.24504L4.23005 4.03504ZM6.30005 8.96504C5.86138 9.01707 5.41715 8.9968 4.98505 8.90504L4.57005 7.44504L4.98505 7.00004H6.52005L6.85505 7.50004L6.30005 8.96504ZM7.50505 8.61504L7.73505 8.00004L8.41505 8.03504C8.13532 8.27063 7.82396 8.46586 7.49005 8.61504H7.50505ZM9.23505 7.05504L7.68005 7.00004L7.32505 6.45004L7.77005 5.07004L8.52505 4.86504L9.70505 5.86504C9.60994 6.28568 9.44607 6.68775 9.22005 7.05504H9.23505ZM9.26005 4.14004L9.50005 3.50004C9.64083 3.83989 9.73015 4.19884 9.76505 4.56504L9.26005 4.14004Z" fill="#323943"/>
</svg>
