<svg width="328" height="122" viewBox="0 0 328 122" fill="none" xmlns="http://www.w3.org/2000/svg">
<g opacity="0.6">
<path d="M177.708 57.0832C177.189 57.0832 176.691 57.2895 176.324 57.6568C175.956 58.024 175.75 58.5221 175.75 59.0415V65.6607L172.852 62.7623C171.828 61.747 170.445 61.1773 169.004 61.1773C167.562 61.1773 166.179 61.747 165.155 62.7623L163.785 64.1528L158.928 59.2765C157.904 58.2612 156.521 57.6915 155.08 57.6915C153.638 57.6915 152.255 58.2612 151.232 59.2765L148.333 62.1944V51.2082C148.333 50.6888 148.54 50.1907 148.907 49.8234C149.274 49.4562 149.772 49.2498 150.292 49.2498H165.958C166.478 49.2498 166.976 49.0435 167.343 48.6763C167.71 48.309 167.917 47.8109 167.917 47.2915C167.917 46.7721 167.71 46.274 167.343 45.9068C166.976 45.5395 166.478 45.3332 165.958 45.3332H150.292C148.733 45.3332 147.239 45.9521 146.137 47.0539C145.036 48.1557 144.417 49.65 144.417 51.2082V75.139C144.422 76.5813 144.997 77.963 146.017 78.9829C147.037 80.0028 148.418 80.578 149.861 80.5832H174.222C174.753 80.5789 175.281 80.4998 175.789 80.3482C176.92 80.031 177.915 79.3516 178.623 78.4141C179.33 77.4767 179.711 76.333 179.706 75.1586V59.0415C179.706 58.781 179.654 58.5231 179.553 58.2829C179.452 58.0427 179.304 57.8251 179.118 57.6427C178.932 57.4604 178.712 57.3169 178.47 57.2208C178.228 57.1248 177.969 57.078 177.708 57.0832ZM150.292 76.6665C149.772 76.6665 149.274 76.4602 148.907 76.0929C148.54 75.7257 148.333 75.2276 148.333 74.7082V67.7169L153.993 62.0573C154.279 61.7727 154.666 61.613 155.07 61.613C155.474 61.613 155.861 61.7727 156.147 62.0573L170.776 76.6665H150.292ZM175.75 74.7082C175.737 75.0874 175.615 75.4548 175.397 75.7657L166.546 66.8748L167.936 65.504C168.077 65.3607 168.244 65.2469 168.429 65.1692C168.614 65.0914 168.813 65.0514 169.013 65.0514C169.214 65.0514 169.413 65.0914 169.597 65.1692C169.782 65.2469 169.95 65.3607 170.09 65.504L175.75 71.2028V74.7082ZM181.625 45.3332H179.667V43.3748C179.667 42.8555 179.46 42.3573 179.093 41.9901C178.726 41.6228 178.228 41.4165 177.708 41.4165C177.189 41.4165 176.691 41.6228 176.324 41.9901C175.956 42.3573 175.75 42.8555 175.75 43.3748V45.3332H173.792C173.272 45.3332 172.774 45.5395 172.407 45.9068C172.04 46.274 171.833 46.7721 171.833 47.2915C171.833 47.8109 172.04 48.309 172.407 48.6763C172.774 49.0435 173.272 49.2498 173.792 49.2498H175.75V51.2082C175.75 51.7276 175.956 52.2257 176.324 52.5929C176.691 52.9602 177.189 53.1665 177.708 53.1665C178.228 53.1665 178.726 52.9602 179.093 52.5929C179.46 52.2257 179.667 51.7276 179.667 51.2082V49.2498H181.625C182.144 49.2498 182.642 49.0435 183.01 48.6763C183.377 48.309 183.583 47.8109 183.583 47.2915C183.583 46.7721 183.377 46.274 183.01 45.9068C182.642 45.5395 182.144 45.3332 181.625 45.3332Z" fill="#272629"/>
</g>
<rect x="0.5" y="1" width="327" height="120" rx="7.5" stroke="#272629"/>
</svg>
