<svg width="19" height="19" viewBox="0 0 19 19" fill="none" xmlns="http://www.w3.org/2000/svg">
<path d="M14.75 8.75H10.25V4.25C10.25 4.05109 10.171 3.86032 10.0303 3.71967C9.88968 3.57902 9.69891 3.5 9.5 3.5C9.30109 3.5 9.11032 3.57902 8.96967 3.71967C8.82902 3.86032 8.75 4.05109 8.75 4.25V8.75H4.25C4.05109 8.75 3.86032 8.82902 3.71967 8.96967C3.57902 9.11032 3.5 9.30109 3.5 9.5C3.5 9.69891 3.57902 9.88968 3.71967 10.0303C3.86032 10.171 4.05109 10.25 4.25 10.25H8.75V14.75C8.75 14.9489 8.82902 15.1397 8.96967 15.2803C9.11032 15.421 9.30109 15.5 9.5 15.5C9.69891 15.5 9.88968 15.421 10.0303 15.2803C10.171 15.1397 10.25 14.9489 10.25 14.75V10.25H14.75C14.9489 10.25 15.1397 10.171 15.2803 10.0303C15.421 9.88968 15.5 9.69891 15.5 9.5C15.5 9.30109 15.421 9.11032 15.2803 8.96967C15.1397 8.82902 14.9489 8.75 14.75 8.75Z" fill="#CF9F3B"/>
</svg>
