<svg width="58" height="28" viewBox="0 0 58 28" fill="none" xmlns="http://www.w3.org/2000/svg">
<rect y="0.875" width="58" height="26.25" rx="13.125" fill="#CCCCCC"/>
<circle cx="13.125" cy="14" r="11.125" fill="white"/>
<path d="M19.0028 9.10492V10.3191C19.003 10.788 18.9108 11.2523 18.7314 11.6855C18.5521 12.1188 18.2892 12.5125 17.9577 12.8441C17.6262 13.1757 17.2327 13.4387 16.7995 13.6182C16.3663 13.7977 15.902 13.89 15.4331 13.89H14.9341L15.4887 13.3179C16.2741 13.3026 17.0222 12.9799 17.5724 12.4193C18.1226 11.8586 18.4311 11.1046 18.4317 10.3191V9.39049H16.2904L16.3618 8.81909H18.7172C18.7548 8.81909 18.7919 8.82649 18.8266 8.84085C18.8612 8.85522 18.8927 8.87628 18.9193 8.90282C18.9458 8.92937 18.9668 8.96088 18.9811 8.99556C18.9955 9.03023 19.0028 9.06739 19.0028 9.10492Z" fill="#E8A615"/>
<path d="M15.0766 17.3306V17.9613H11.3647V17.3306C11.3647 17.3053 11.3715 17.2805 11.3843 17.2586C11.3971 17.2368 11.4155 17.2188 11.4376 17.2064L11.7189 17.0478C11.958 16.9131 12.157 16.7172 12.2954 16.4803C12.4339 16.2433 12.5068 15.9738 12.5067 15.6994V15.033H13.9346V15.6994C13.9345 15.9738 14.0075 16.2433 14.1459 16.4803C14.2844 16.7172 14.4833 16.9131 14.7224 17.0478L15.0037 17.2064C15.0258 17.2188 15.0442 17.2368 15.0571 17.2586C15.0699 17.2805 15.0766 17.3053 15.0766 17.3306Z" fill="#E8A615"/>
<path d="M15.0766 17.3306V17.9613H14.7197V17.3306C14.7197 17.3053 14.7129 17.2805 14.7001 17.2586C14.6873 17.2368 14.6689 17.2188 14.6468 17.2064L14.3657 17.0478C14.1265 16.9132 13.9275 16.7173 13.789 16.4804C13.6505 16.2434 13.5775 15.9739 13.5776 15.6994V15.033H13.9346V15.6994C13.9345 15.9738 14.0075 16.2433 14.1459 16.4803C14.2844 16.7172 14.4833 16.9131 14.7224 17.0478L15.0037 17.2064C15.0258 17.2188 15.0443 17.2368 15.0571 17.2586C15.0699 17.2805 15.0766 17.3053 15.0766 17.3306Z" fill="#B7791D"/>
<path d="M14.3626 14.4756V14.8899C14.3626 14.9846 14.325 15.0754 14.2581 15.1424C14.1912 15.2094 14.1004 15.247 14.0057 15.2471H12.4355C12.3408 15.247 12.25 15.2094 12.1831 15.1424C12.1162 15.0754 12.0786 14.9846 12.0786 14.8899V14.4756H14.3626Z" fill="#E8A615"/>
<path d="M13.9346 15.2468H12.507V15.4567H13.9346V15.2468Z" fill="#B7791D"/>
<path d="M15.6476 17.8183V20.3181H10.7938V17.8183C10.794 17.7805 10.809 17.7443 10.8358 17.7175C10.8625 17.6908 10.8988 17.6757 10.9366 17.6755H15.5048C15.5426 17.6757 15.5789 17.6908 15.6056 17.7175C15.6324 17.7443 15.6474 17.7805 15.6476 17.8183Z" fill="#343B49"/>
<path d="M15.6478 17.8183V20.3181H15.3625V17.8183C15.3623 17.7805 15.3472 17.7443 15.3205 17.7175C15.2937 17.6908 15.2575 17.6757 15.2197 17.6755H15.505C15.5428 17.6757 15.5791 17.6908 15.6058 17.7175C15.6326 17.7443 15.6476 17.7805 15.6478 17.8183Z" fill="#262D38"/>
<path d="M15.9331 20.1035H10.5082C10.4293 20.1035 10.3654 20.1674 10.3654 20.2463V20.5321C10.3654 20.611 10.4293 20.6749 10.5082 20.6749H15.9331C16.012 20.6749 16.0759 20.611 16.0759 20.5321V20.2463C16.0759 20.1674 16.012 20.1035 15.9331 20.1035Z" fill="#262D38"/>
<path d="M16.0759 20.2463V20.5319C16.0759 20.5697 16.0608 20.6061 16.0341 20.6329C16.0073 20.6597 15.971 20.6748 15.9332 20.6749H15.6476C15.6855 20.6748 15.7217 20.6597 15.7485 20.6329C15.7752 20.6061 15.7903 20.5697 15.7904 20.5319V20.2463C15.7903 20.2085 15.7752 20.1722 15.7485 20.1454C15.7217 20.1186 15.6854 20.1036 15.6476 20.1035H15.9332C15.971 20.1036 16.0072 20.1187 16.034 20.1455C16.0607 20.1722 16.0758 20.2085 16.0759 20.2463Z" fill="#171C23"/>
<path d="M14.7909 18.2471H11.6501C11.5713 18.2471 11.5073 18.311 11.5073 18.3899V19.3899C11.5073 19.4687 11.5713 19.5327 11.6501 19.5327H14.7909C14.8698 19.5327 14.9337 19.4687 14.9337 19.3899V18.3899C14.9337 18.311 14.8698 18.2471 14.7909 18.2471Z" fill="#E8A615"/>
<path d="M14.3627 14.4756V14.8899C14.3627 14.9846 14.3251 15.0754 14.2581 15.1424C14.1912 15.2094 14.1004 15.247 14.0057 15.2471H13.7204C13.8151 15.247 13.9058 15.2093 13.9727 15.1423C14.0395 15.0753 14.0771 14.9845 14.0771 14.8899V14.4756H14.3627Z" fill="#B7791D"/>
<path d="M11.7218 13.89H11.0086C10.0619 13.89 9.15394 13.5139 8.4845 12.8445C7.81505 12.1751 7.43896 11.2671 7.43896 10.3204V9.10492C7.43893 9.06739 7.44629 9.03023 7.46063 8.99556C7.47497 8.96088 7.496 8.92937 7.52252 8.90282C7.54904 8.87628 7.58053 8.85522 7.6152 8.84085C7.64986 8.82649 7.68702 8.81909 7.72454 8.81909H10.08V9.39049H8.01011V10.3191C8.01069 11.1046 8.31919 11.8586 8.8694 12.4193C9.41962 12.9799 10.1677 13.3026 10.9531 13.3179L11.7218 13.89Z" fill="#E8A615"/>
<path d="M16.7186 8.2478V8.53338C16.7186 12.0043 15.1524 14.818 13.2208 14.818C11.2892 14.818 9.72302 12.004 9.72302 8.53338V8.2478H16.7186Z" fill="#E8A615"/>
<path d="M9.75508 9.39049H9.46951C9.45543 9.20279 9.44596 9.01232 9.4411 8.81909H9.72642C9.73128 9.01216 9.74084 9.20262 9.75508 9.39049Z" fill="#B7791D"/>
<path d="M11.3907 13.8906H11.1051C10.9383 13.7057 10.787 13.5075 10.6526 13.2979C10.7519 13.3098 10.8517 13.3167 10.9517 13.3185C11.0825 13.5206 11.2293 13.712 11.3907 13.8906Z" fill="#B7791D"/>
<path d="M14.3626 14.4756V14.6186C14.0044 14.8406 13.6203 14.9613 13.2206 14.9613C12.8209 14.9613 12.4368 14.8406 12.0786 14.6186V14.4756C12.4368 14.6978 12.8209 14.8185 13.2206 14.8185C13.6203 14.8185 14.0044 14.6978 14.3626 14.4756Z" fill="#B7791D"/>
<path d="M16.7185 8.2478V8.53338C16.7185 11.8959 15.2486 14.642 13.4002 14.8105C15.1961 14.6398 15.8613 11.8944 15.8613 8.53338V8.2478H16.7185Z" fill="#B7791D"/>
<path d="M17.0752 8.17668C17.0753 8.22358 17.0662 8.27006 17.0483 8.31342C17.0305 8.35679 17.0042 8.3962 16.9711 8.42937C16.9379 8.46255 16.8985 8.48885 16.8552 8.50674C16.8118 8.52464 16.7653 8.53378 16.7184 8.53365H9.7229C9.6752 8.53491 9.62774 8.52661 9.58331 8.50924C9.53888 8.49186 9.49838 8.46576 9.4642 8.43247C9.43002 8.39919 9.40286 8.3594 9.38431 8.31544C9.36576 8.27149 9.3562 8.22426 9.3562 8.17655C9.3562 8.12885 9.36576 8.08162 9.38431 8.03767C9.40286 7.99371 9.43002 7.95392 9.4642 7.92063C9.49838 7.88735 9.53888 7.86125 9.58331 7.84387C9.62774 7.8265 9.6752 7.8182 9.7229 7.81946H16.7184C16.7653 7.81949 16.8117 7.82876 16.855 7.84673C16.8983 7.8647 16.9377 7.89102 16.9708 7.92419C17.0039 7.95736 17.0302 7.99673 17.0481 8.04006C17.066 8.08338 17.0752 8.1298 17.0752 8.17668Z" fill="#E8A615"/>
<path d="M16.7188 8.53345C16.7188 8.62923 16.7173 8.72425 16.7151 8.81902H9.72679C9.72453 8.72425 9.72302 8.62923 9.72302 8.53345H16.7188Z" fill="#B7791D"/>
<path d="M17.0751 8.17704C17.0753 8.22395 17.0662 8.27042 17.0483 8.31379C17.0305 8.35715 17.0042 8.39656 16.9711 8.42974C16.9379 8.46291 16.8985 8.48921 16.8552 8.5071C16.8118 8.525 16.7653 8.53414 16.7184 8.53401H15.9331C16.0262 8.53154 16.1146 8.49283 16.1796 8.42614C16.2445 8.35944 16.2808 8.27002 16.2808 8.17692C16.2808 8.08382 16.2445 7.9944 16.1796 7.9277C16.1146 7.861 16.0262 7.82229 15.9331 7.81982H16.7184C16.7653 7.81986 16.8117 7.82912 16.855 7.84709C16.8983 7.86506 16.9376 7.89138 16.9708 7.92456C17.0039 7.95773 17.0302 7.9971 17.0481 8.04042C17.066 8.08374 17.0752 8.13017 17.0751 8.17704Z" fill="#B7791D"/>
<path d="M14.9341 18.3899V19.3899C14.934 19.4277 14.9189 19.4639 14.8921 19.4907C14.8654 19.5174 14.8292 19.5325 14.7913 19.5327H11.9575C12.5341 19.5211 14.4344 19.3984 14.4344 18.2471H14.7913C14.8292 18.2472 14.8654 18.2623 14.8921 18.289C14.9189 18.3158 14.934 18.352 14.9341 18.3899Z" fill="#B7791D"/>
<path d="M11.6502 19.0312V18.448C11.6502 18.4403 11.6517 18.4327 11.6546 18.4256C11.6575 18.4185 11.6618 18.412 11.6672 18.4066C11.6726 18.4011 11.6791 18.3968 11.6862 18.3939C11.6932 18.3909 11.7008 18.3894 11.7085 18.3894H12.9886C12.9886 18.3894 11.9715 18.4965 11.6502 19.0312Z" fill="#FFCC66"/>
<path d="M10.9546 18.4607V17.8764C10.9546 17.861 10.9607 17.8461 10.9717 17.8351C10.9826 17.8241 10.9974 17.8179 11.0129 17.8179H12.293C12.293 17.8179 11.2756 17.925 10.9546 18.4607Z" fill="#4E5868"/>
<path d="M13.221 14.6038C12.4457 14.6038 10.2958 12.9675 10.0352 9.10449H10.8831C11.0968 13.831 13.221 14.6038 13.221 14.6038Z" fill="#FFCC66"/>
<path d="M11.7219 17.3893C11.7219 17.3893 12.7211 16.7465 12.7211 15.8181V17.3893H11.7219Z" fill="#FFCC66"/>
<path d="M9.86599 7.9624V8.17683H9.50928C9.50928 8.12005 9.5318 8.06558 9.57191 8.02539C9.61201 7.98519 9.66642 7.96254 9.72321 7.9624H9.86599Z" fill="#FFCC66"/>
<path d="M16.9291 8.81909C16.9241 9.01216 16.9148 9.20271 16.9 9.39049H16.2903L16.3617 8.81909H16.9291Z" fill="#B7791D"/>
<path d="M15.7114 13.3064C15.5783 13.5126 15.4291 13.7079 15.2652 13.8906H14.9341L15.1868 13.6307L15.4884 13.3185C15.5636 13.317 15.638 13.3127 15.7114 13.3064Z" fill="#B7791D"/>
</svg>
