<svg width="58" height="28" viewBox="0 0 58 28" fill="none" xmlns="http://www.w3.org/2000/svg">
<rect y="0.875" width="58" height="26.25" rx="13.125" fill="#CF9F3B"/>
<circle cx="44.875" cy="14" r="11.125" fill="white"/>
<path d="M50.7528 9.10492V10.3191C50.7529 10.788 50.6607 11.2523 50.4814 11.6855C50.3021 12.1188 50.0392 12.5125 49.7077 12.8441C49.3762 13.1757 48.9826 13.4387 48.5494 13.6182C48.1163 13.7977 47.652 13.89 47.1831 13.89H46.6841L47.2386 13.3179C48.024 13.3026 48.7721 12.9799 49.3223 12.4193C49.8725 11.8586 50.181 11.1046 50.1816 10.3191V9.39049H48.0403L48.1117 8.81909H50.4672C50.5047 8.81909 50.5419 8.82649 50.5765 8.84085C50.6112 8.85522 50.6427 8.87628 50.6692 8.90282C50.6957 8.92937 50.7167 8.96088 50.7311 8.99556C50.7454 9.03023 50.7528 9.06739 50.7528 9.10492Z" fill="#E8A615"/>
<path d="M46.8266 17.3306V17.9613H43.1146V17.3306C43.1146 17.3053 43.1214 17.2805 43.1342 17.2586C43.147 17.2368 43.1654 17.2188 43.1875 17.2064L43.4688 17.0478C43.7079 16.9131 43.9069 16.7172 44.0454 16.4803C44.1838 16.2433 44.2567 15.9738 44.2567 15.6994V15.033H45.6845V15.6994C45.6845 15.9738 45.7574 16.2433 45.8958 16.4803C46.0343 16.7172 46.2333 16.9131 46.4724 17.0478L46.7537 17.2064C46.7758 17.2188 46.7942 17.2368 46.807 17.2586C46.8198 17.2805 46.8266 17.3053 46.8266 17.3306Z" fill="#E8A615"/>
<path d="M46.8266 17.3306V17.9613H46.4697V17.3306C46.4697 17.3053 46.4629 17.2805 46.4501 17.2586C46.4373 17.2368 46.4189 17.2188 46.3968 17.2064L46.1157 17.0478C45.8765 16.9132 45.6775 16.7173 45.539 16.4804C45.4005 16.2434 45.3275 15.9739 45.3276 15.6994V15.033H45.6846V15.6994C45.6845 15.9738 45.7575 16.2433 45.8959 16.4803C46.0344 16.7172 46.2333 16.9131 46.4724 17.0478L46.7537 17.2064C46.7758 17.2188 46.7943 17.2368 46.8071 17.2586C46.8199 17.2805 46.8266 17.3053 46.8266 17.3306Z" fill="#B7791D"/>
<path d="M46.1126 14.4756V14.8899C46.1126 14.9846 46.075 15.0754 46.008 15.1424C45.9411 15.2094 45.8503 15.247 45.7556 15.2471H44.1855C44.0908 15.247 44 15.2094 43.933 15.1424C43.8661 15.0754 43.8285 14.9846 43.8285 14.8899V14.4756H46.1126Z" fill="#E8A615"/>
<path d="M45.6845 15.2468H44.2568V15.4567H45.6845V15.2468Z" fill="#B7791D"/>
<path d="M47.3974 17.8183V20.3181H42.5437V17.8183C42.5438 17.7805 42.5589 17.7443 42.5857 17.7175C42.6124 17.6908 42.6487 17.6757 42.6865 17.6755H47.2547C47.2925 17.6757 47.3287 17.6908 47.3555 17.7175C47.3822 17.7443 47.3973 17.7805 47.3974 17.8183Z" fill="#343B49"/>
<path d="M47.3977 17.8183V20.3181H47.1124V17.8183C47.1123 17.7805 47.0972 17.7443 47.0704 17.7175C47.0437 17.6908 47.0074 17.6757 46.9696 17.6755H47.2549C47.2928 17.6757 47.329 17.6908 47.3557 17.7175C47.3825 17.7443 47.3976 17.7805 47.3977 17.8183Z" fill="#262D38"/>
<path d="M47.683 20.1035H42.2581C42.1793 20.1035 42.1154 20.1674 42.1154 20.2463V20.5321C42.1154 20.611 42.1793 20.6749 42.2581 20.6749H47.683C47.7619 20.6749 47.8258 20.611 47.8258 20.5321V20.2463C47.8258 20.1674 47.7619 20.1035 47.683 20.1035Z" fill="#262D38"/>
<path d="M47.8258 20.2463V20.5319C47.8258 20.5697 47.8107 20.6061 47.7839 20.6329C47.7572 20.6597 47.7209 20.6748 47.683 20.6749H47.3975C47.4353 20.6748 47.4716 20.6597 47.4984 20.6329C47.5251 20.6061 47.5402 20.5697 47.5402 20.5319V20.2463C47.5402 20.2085 47.5251 20.1722 47.4984 20.1454C47.4716 20.1186 47.4353 20.1036 47.3975 20.1035H47.683C47.7209 20.1036 47.7571 20.1187 47.7839 20.1455C47.8106 20.1722 47.8257 20.2085 47.8258 20.2463Z" fill="#171C23"/>
<path d="M46.5409 18.2471H43.4001C43.3213 18.2471 43.2573 18.311 43.2573 18.3899V19.3899C43.2573 19.4687 43.3213 19.5327 43.4001 19.5327H46.5409C46.6198 19.5327 46.6837 19.4687 46.6837 19.3899V18.3899C46.6837 18.311 46.6198 18.2471 46.5409 18.2471Z" fill="#E8A615"/>
<path d="M46.1126 14.4756V14.8899C46.1126 14.9846 46.075 15.0754 46.0081 15.1424C45.9412 15.2094 45.8504 15.247 45.7557 15.2471H45.4703C45.565 15.247 45.6557 15.2093 45.7226 15.1423C45.7895 15.0753 45.8271 14.9845 45.8271 14.8899V14.4756H46.1126Z" fill="#B7791D"/>
<path d="M43.4717 13.89H42.7585C41.8118 13.89 40.9038 13.5139 40.2344 12.8445C39.5649 12.1751 39.1888 11.2671 39.1888 10.3204V9.10492C39.1888 9.06739 39.1962 9.03023 39.2105 8.99556C39.2248 8.96088 39.2459 8.92937 39.2724 8.90282C39.2989 8.87628 39.3304 8.85522 39.3651 8.84085C39.3997 8.82649 39.4369 8.81909 39.4744 8.81909H41.8299V9.39049H39.76V10.3191C39.7606 11.1046 40.0691 11.8586 40.6193 12.4193C41.1695 12.9799 41.9176 13.3026 42.703 13.3179L43.4717 13.89Z" fill="#E8A615"/>
<path d="M48.4686 8.2478V8.53338C48.4686 12.0043 46.9024 14.818 44.9708 14.818C43.0392 14.818 41.473 12.004 41.473 8.53338V8.2478H48.4686Z" fill="#E8A615"/>
<path d="M41.505 9.39049H41.2194C41.2054 9.20279 41.1959 9.01232 41.191 8.81909H41.4764C41.4812 9.01216 41.4908 9.20262 41.505 9.39049Z" fill="#B7791D"/>
<path d="M43.1405 13.8906H42.855C42.6882 13.7057 42.5368 13.5075 42.4025 13.2979C42.5018 13.3098 42.6016 13.3167 42.7016 13.3185C42.8324 13.5206 42.9791 13.712 43.1405 13.8906Z" fill="#B7791D"/>
<path d="M46.1126 14.4756V14.6186C45.7544 14.8406 45.3702 14.9613 44.9705 14.9613C44.5708 14.9613 44.1867 14.8406 43.8285 14.6186V14.4756C44.1867 14.6978 44.5708 14.8185 44.9705 14.8185C45.3702 14.8185 45.7544 14.6978 46.1126 14.4756Z" fill="#B7791D"/>
<path d="M48.4684 8.2478V8.53338C48.4684 11.8959 46.9986 14.642 45.1501 14.8105C46.946 14.6398 47.6112 11.8944 47.6112 8.53338V8.2478H48.4684Z" fill="#B7791D"/>
<path d="M48.8252 8.17668C48.8253 8.22358 48.8162 8.27006 48.7983 8.31342C48.7805 8.35679 48.7542 8.3962 48.7211 8.42937C48.6879 8.46255 48.6485 8.48885 48.6052 8.50674C48.5618 8.52464 48.5153 8.53378 48.4684 8.53365H41.4729C41.4252 8.53491 41.3777 8.52661 41.3333 8.50924C41.2889 8.49186 41.2484 8.46576 41.2142 8.43247C41.18 8.39919 41.1529 8.3594 41.1343 8.31544C41.1158 8.27149 41.1062 8.22426 41.1062 8.17655C41.1062 8.12885 41.1158 8.08162 41.1343 8.03767C41.1529 7.99371 41.18 7.95392 41.2142 7.92063C41.2484 7.88735 41.2889 7.86125 41.3333 7.84387C41.3777 7.8265 41.4252 7.8182 41.4729 7.81946H48.4684C48.5153 7.81949 48.5617 7.82876 48.605 7.84673C48.6483 7.8647 48.6877 7.89102 48.7208 7.92419C48.7539 7.95736 48.7802 7.99673 48.7981 8.04006C48.816 8.08338 48.8252 8.1298 48.8252 8.17668Z" fill="#E8A615"/>
<path d="M48.4688 8.53345C48.4688 8.62923 48.4673 8.72425 48.4651 8.81902H41.4768C41.4745 8.72425 41.473 8.62923 41.473 8.53345H48.4688Z" fill="#B7791D"/>
<path d="M48.825 8.17704C48.8252 8.22395 48.8161 8.27042 48.7982 8.31379C48.7804 8.35715 48.7541 8.39656 48.7209 8.42974C48.6878 8.46291 48.6484 8.48921 48.605 8.5071C48.5617 8.525 48.5152 8.53414 48.4683 8.53401H47.683C47.7761 8.53154 47.8645 8.49283 47.9294 8.42614C47.9944 8.35944 48.0307 8.27002 48.0307 8.17692C48.0307 8.08382 47.9944 7.9944 47.9294 7.9277C47.8645 7.861 47.7761 7.82229 47.683 7.81982H48.4683C48.5152 7.81986 48.5616 7.82912 48.6049 7.84709C48.6482 7.86506 48.6875 7.89138 48.7207 7.92456C48.7538 7.95773 48.78 7.9971 48.798 8.04042C48.8159 8.08374 48.8251 8.13017 48.825 8.17704Z" fill="#B7791D"/>
<path d="M46.6841 18.3899V19.3899C46.6839 19.4277 46.6688 19.4639 46.6421 19.4907C46.6153 19.5174 46.5791 19.5325 46.5413 19.5327H43.7074C44.2841 19.5211 46.1843 19.3984 46.1843 18.2471H46.5413C46.5791 18.2472 46.6153 18.2623 46.6421 18.289C46.6688 18.3158 46.6839 18.352 46.6841 18.3899Z" fill="#B7791D"/>
<path d="M43.4001 19.0312V18.448C43.4001 18.4403 43.4016 18.4327 43.4045 18.4256C43.4074 18.4185 43.4117 18.412 43.4171 18.4066C43.4226 18.4011 43.429 18.3968 43.4361 18.3939C43.4432 18.3909 43.4508 18.3894 43.4585 18.3894H44.7385C44.7385 18.3894 43.7214 18.4965 43.4001 19.0312Z" fill="#FFCC66"/>
<path d="M42.7046 18.4607V17.8764C42.7046 17.861 42.7107 17.8461 42.7217 17.8351C42.7326 17.8241 42.7474 17.8179 42.7629 17.8179H44.043C44.043 17.8179 43.0256 17.925 42.7046 18.4607Z" fill="#4E5868"/>
<path d="M44.9708 14.6038C44.1956 14.6038 42.0457 12.9675 41.785 9.10449H42.633C42.8466 13.831 44.9708 14.6038 44.9708 14.6038Z" fill="#FFCC66"/>
<path d="M43.4718 17.3893C43.4718 17.3893 44.4711 16.7465 44.4711 15.8181V17.3893H43.4718Z" fill="#FFCC66"/>
<path d="M41.6159 7.9624V8.17683H41.2592C41.2592 8.12005 41.2817 8.06558 41.3218 8.02539C41.3619 7.98519 41.4163 7.96254 41.4731 7.9624H41.6159Z" fill="#FFCC66"/>
<path d="M48.6791 8.81909C48.674 9.01216 48.6647 9.20271 48.6499 9.39049H48.0403L48.1117 8.81909H48.6791Z" fill="#B7791D"/>
<path d="M47.4614 13.3064C47.3282 13.5126 47.179 13.7079 47.0152 13.8906H46.6841L46.9367 13.6307L47.2384 13.3185C47.3136 13.317 47.388 13.3127 47.4614 13.3064Z" fill="#B7791D"/>
</svg>
