<svg width="30" height="30" viewBox="0 0 30 30" fill="none" xmlns="http://www.w3.org/2000/svg">
<circle cx="15" cy="15" r="15" fill="white"/>
<path d="M20.3333 11.0002H17.6667V10.3335C17.6667 9.80306 17.456 9.29436 17.0809 8.91928C16.7058 8.54421 16.1971 8.3335 15.6667 8.3335H14.3333C13.8029 8.3335 13.2942 8.54421 12.9191 8.91928C12.544 9.29436 12.3333 9.80306 12.3333 10.3335V11.0002H9.66667C9.48986 11.0002 9.32029 11.0704 9.19526 11.1954C9.07024 11.3204 9 11.49 9 11.6668C9 11.8436 9.07024 12.0132 9.19526 12.1382C9.32029 12.2633 9.48986 12.3335 9.66667 12.3335H10.3333V19.6668C10.3333 20.1973 10.544 20.706 10.9191 21.081C11.2942 21.4561 11.8029 21.6668 12.3333 21.6668H17.6667C18.1971 21.6668 18.7058 21.4561 19.0809 21.081C19.456 20.706 19.6667 20.1973 19.6667 19.6668V12.3335H20.3333C20.5101 12.3335 20.6797 12.2633 20.8047 12.1382C20.9298 12.0132 21 11.8436 21 11.6668C21 11.49 20.9298 11.3204 20.8047 11.1954C20.6797 11.0704 20.5101 11.0002 20.3333 11.0002ZM13.6667 10.3335C13.6667 10.1567 13.7369 9.98712 13.8619 9.86209C13.987 9.73707 14.1565 9.66683 14.3333 9.66683H15.6667C15.8435 9.66683 16.013 9.73707 16.1381 9.86209C16.2631 9.98712 16.3333 10.1567 16.3333 10.3335V11.0002H13.6667V10.3335ZM18.3333 19.6668C18.3333 19.8436 18.2631 20.0132 18.1381 20.1382C18.013 20.2633 17.8435 20.3335 17.6667 20.3335H12.3333C12.1565 20.3335 11.987 20.2633 11.8619 20.1382C11.7369 20.0132 11.6667 19.8436 11.6667 19.6668V12.3335H18.3333V19.6668Z" fill="#161C21"/>
</svg>
