<svg width="138" height="54" viewBox="0 0 138 54" fill="none" xmlns="http://www.w3.org/2000/svg">
<path opacity="0.4" fill-rule="evenodd" clip-rule="evenodd" d="M1.4951 48.5312L9.13222 42.0819C10.1311 41.2384 11.6684 41.7373 11.9816 43.0067C12.2578 44.1264 13.5171 44.6838 14.5317 44.1355L16.0874 43.2947C17.5343 42.5127 19.3396 42.9833 20.2206 44.3721L21.91 47.0352C23.8856 50.1494 28.3717 50.3106 30.5657 47.3461C31.556 46.008 33.1221 45.2188 34.7868 45.2188H36.5593C39.8088 45.2188 42.7265 43.2283 43.9119 40.2028L51.2911 21.3699C51.8141 20.035 53.7435 20.1621 54.0869 21.5541C54.4492 23.0226 56.526 23.0525 56.9305 21.5951L60.7199 7.94141C61.468 5.24588 65.1196 4.83693 66.4455 7.30019C67.1632 8.63364 68.7383 9.25475 70.173 8.77013L70.9679 8.50161C73.186 7.75236 75.5799 9.01044 76.2209 11.2622L79.3314 22.1894C79.9977 24.53 83.1773 24.8635 84.3147 22.712C85.4302 20.6018 88.5345 20.8712 89.2698 23.1421L90.6992 27.5567C92.1552 32.0532 98.6079 31.776 99.6729 27.1712L101.519 19.1896C101.713 18.3523 102.798 18.1266 103.31 18.8174C103.795 19.4729 104.817 19.3102 105.075 18.5365L106.157 15.288C107.091 12.4826 111.176 12.872 111.563 15.8034L112.447 22.4884C112.664 24.1286 114.766 24.6719 115.75 23.342C116.654 22.1215 118.563 22.4584 118.994 23.9144L119.296 24.9332C119.97 27.2115 123.204 27.1905 123.849 24.9036L125.372 19.5009C125.841 17.8385 128.019 17.4459 129.039 18.84C129.378 19.3037 129.895 19.6058 130.465 19.6739L136.333 20.375V53.5H1.4951V48.5312Z" fill="url(#paint0_linear_3_28)"/>
<path d="M1.4951 48.5312L9.13222 42.0819C10.1311 41.2384 11.6684 41.7373 11.9816 43.0067V43.0067C12.2578 44.1264 13.5171 44.6838 14.5317 44.1355L16.0874 43.2947C17.5343 42.5127 19.3396 42.9833 20.2206 44.3721L21.91 47.0352C23.8856 50.1494 28.3717 50.3106 30.5657 47.3461V47.3461C31.556 46.008 33.1221 45.2188 34.7868 45.2188H36.5593C39.8087 45.2188 42.7265 43.2283 43.9119 40.2028L51.2911 21.3699C51.8141 20.035 53.7435 20.1621 54.0869 21.5541V21.5541C54.4492 23.0226 56.526 23.0525 56.9305 21.5951L60.7199 7.94141C61.468 5.24588 65.1196 4.83693 66.4455 7.30019V7.30019C67.1632 8.63364 68.7383 9.25475 70.173 8.77013L70.9679 8.50161C73.186 7.75236 75.5799 9.01044 76.2209 11.2622L79.3314 22.1894C79.9977 24.53 83.1773 24.8635 84.3147 22.712V22.712C85.4302 20.6018 88.5345 20.8712 89.2698 23.1421L90.6992 27.5567C92.1552 32.0532 98.6079 31.776 99.6729 27.1712L101.519 19.1896C101.713 18.3523 102.798 18.1266 103.31 18.8174V18.8174C103.795 19.4729 104.817 19.3102 105.075 18.5365L106.157 15.288C107.091 12.4826 111.176 12.872 111.563 15.8034L112.447 22.4884C112.664 24.1286 114.766 24.6719 115.75 23.342V23.342C116.654 22.1215 118.563 22.4584 118.994 23.9144L119.296 24.9332C119.97 27.2115 123.204 27.1905 123.849 24.9036L125.372 19.5009C125.841 17.8385 128.019 17.4458 129.039 18.84V18.84C129.378 19.3037 129.894 19.6058 130.465 19.6739L136.333 20.375" stroke="#FFC961" stroke-width="2" stroke-linecap="round" stroke-linejoin="round"/>
<defs>
<linearGradient id="paint0_linear_3_28" x1="68.9142" y1="0.5" x2="68.9142" y2="53.5" gradientUnits="userSpaceOnUse">
<stop stop-color="#FFC961"/>
<stop offset="1" stop-color="#FFC961" stop-opacity="0"/>
</linearGradient>
</defs>
</svg>
