<svg width="138" height="54" viewBox="0 0 138 54" fill="none" xmlns="http://www.w3.org/2000/svg">
<path opacity="0.4" fill-rule="evenodd" clip-rule="evenodd" d="M1.82849 48.5312L9.46561 42.0819C10.4645 41.2384 12.0018 41.7373 12.315 43.0067C12.5912 44.1264 13.8505 44.6838 14.8651 44.1355L16.4207 43.2947C17.8677 42.5127 19.673 42.9833 20.554 44.3721L22.2434 47.0352C24.219 50.1494 28.705 50.3106 30.899 47.3461C31.8894 46.008 33.4555 45.2188 35.1202 45.2188H36.8927C40.1421 45.2188 43.0599 43.2283 44.2453 40.2028L51.6244 21.3699C52.1475 20.035 54.0769 20.1621 54.4203 21.5541C54.7825 23.0226 56.8594 23.0525 57.2639 21.5951L61.0533 7.94141C61.8014 5.24588 65.453 4.83693 66.7789 7.30019C67.4966 8.63364 69.0716 9.25475 70.5063 8.77013L71.3013 8.50161C73.5194 7.75236 75.9133 9.01044 76.5543 11.2622L79.6648 22.1894C80.3311 24.53 83.5107 24.8635 84.6481 22.712C85.7636 20.6018 88.8679 20.8712 89.6032 23.1421L91.0326 27.5567C92.4886 32.0532 98.9413 31.776 100.006 27.1712L101.852 19.1896C102.046 18.3523 103.132 18.1266 103.643 18.8174C104.128 19.4729 105.151 19.3102 105.408 18.5365L106.49 15.288C107.424 12.4826 111.509 12.872 111.897 15.8034L112.78 22.4884C112.997 24.1286 115.1 24.6719 116.084 23.342C116.987 22.1215 118.896 22.4584 119.328 23.9144L119.629 24.9332C120.304 27.2115 123.538 27.1905 124.183 24.9036L125.706 19.5009C126.175 17.8385 128.352 17.4459 129.372 18.84C129.711 19.3037 130.228 19.6058 130.798 19.6739L136.667 20.375V53.5H1.82849V48.5312Z" fill="url(#paint0_linear_3_34)"/>
<path d="M1.82849 48.5312L9.46561 42.0819C10.4645 41.2384 12.0018 41.7373 12.315 43.0067V43.0067C12.5912 44.1264 13.8505 44.6838 14.8651 44.1355L16.4207 43.2947C17.8677 42.5127 19.673 42.9833 20.554 44.3721L22.2434 47.0352C24.219 50.1494 28.705 50.3106 30.899 47.3461V47.3461C31.8894 46.008 33.4555 45.2188 35.1202 45.2188H36.8927C40.1421 45.2188 43.0599 43.2283 44.2453 40.2028L51.6244 21.3699C52.1475 20.035 54.0769 20.1621 54.4203 21.5541V21.5541C54.7825 23.0226 56.8594 23.0525 57.2639 21.5951L61.0533 7.94141C61.8014 5.24588 65.453 4.83693 66.7789 7.30019V7.30019C67.4966 8.63364 69.0716 9.25475 70.5063 8.77013L71.3013 8.50161C73.5194 7.75236 75.9133 9.01044 76.5543 11.2622L79.6648 22.1894C80.3311 24.53 83.5107 24.8635 84.6481 22.712V22.712C85.7636 20.6018 88.8679 20.8712 89.6032 23.1421L91.0326 27.5567C92.4886 32.0532 98.9413 31.776 100.006 27.1712L101.852 19.1896C102.046 18.3523 103.132 18.1266 103.643 18.8174V18.8174C104.128 19.4729 105.151 19.3102 105.408 18.5365L106.49 15.288C107.424 12.4826 111.509 12.872 111.897 15.8034L112.78 22.4884C112.997 24.1286 115.1 24.6719 116.084 23.342V23.342C116.987 22.1215 118.896 22.4584 119.328 23.9144L119.629 24.9332C120.304 27.2115 123.538 27.1905 124.183 24.9036L125.706 19.5009C126.175 17.8385 128.352 17.4458 129.372 18.84V18.84C129.711 19.3037 130.228 19.6058 130.798 19.6739L136.667 20.375" stroke="#2ACD4E" stroke-width="2" stroke-linecap="round" stroke-linejoin="round"/>
<defs>
<linearGradient id="paint0_linear_3_34" x1="69.2476" y1="0.5" x2="69.2476" y2="53.5" gradientUnits="userSpaceOnUse">
<stop stop-color="#2ACD4E"/>
<stop offset="1" stop-color="#2ACD4E" stop-opacity="0"/>
</linearGradient>
</defs>
</svg>
