<svg width="137" height="54" viewBox="0 0 137 54" fill="none" xmlns="http://www.w3.org/2000/svg">
<path opacity="0.4" fill-rule="evenodd" clip-rule="evenodd" d="M1.16187 48.5312L8.79899 42.0819C9.79788 41.2384 11.3352 41.7373 11.6484 43.0067C11.9246 44.1264 13.1838 44.6838 14.1985 44.1355L15.7541 43.2947C17.201 42.5127 19.0063 42.9833 19.8874 44.3721L21.5768 47.0352C23.5524 50.1494 28.0384 50.3106 30.2324 47.3461C31.2228 46.008 32.7889 45.2188 34.4536 45.2188H36.2261C39.4755 45.2188 42.3933 43.2283 43.5787 40.2028L50.9578 21.3699C51.4809 20.035 53.4102 20.1621 53.7536 21.5541C54.1159 23.0226 56.1927 23.0525 56.5972 21.5951L60.3867 7.94141C61.1348 5.24588 64.7864 4.83693 66.1122 7.30019C66.83 8.63364 68.405 9.25475 69.8397 8.77013L70.6346 8.50161C72.8528 7.75236 75.2467 9.01044 75.8877 11.2622L78.9982 22.1894C79.6644 24.53 82.8441 24.8635 83.9814 22.712C85.097 20.6018 88.2013 20.8712 88.9366 23.1421L90.366 27.5567C91.8219 32.0532 98.2747 31.776 99.3397 27.1712L101.186 19.1896C101.379 18.3523 102.465 18.1266 102.976 18.8174C103.462 19.4729 104.484 19.3102 104.742 18.5365L105.823 15.288C106.758 12.4826 110.843 12.872 111.23 15.8034L112.114 22.4884C112.33 24.1286 114.433 24.6719 115.417 23.342C116.32 22.1215 118.23 22.4584 118.661 23.9144L118.962 24.9332C119.637 27.2115 122.871 27.1905 123.516 24.9036L125.039 19.5009C125.508 17.8385 127.686 17.4459 128.705 18.84C129.045 19.3037 129.561 19.6058 130.132 19.6739L136 20.375V53.5H1.16187V48.5312Z" fill="url(#paint0_linear_3_37)"/>
<path d="M1.16187 48.5312L8.79899 42.0819C9.79788 41.2384 11.3352 41.7373 11.6484 43.0067V43.0067C11.9246 44.1264 13.1838 44.6838 14.1985 44.1355L15.7541 43.2947C17.201 42.5127 19.0063 42.9833 19.8874 44.3721L21.5768 47.0352C23.5524 50.1494 28.0384 50.3106 30.2324 47.3461V47.3461C31.2228 46.008 32.7889 45.2188 34.4536 45.2188H36.2261C39.4755 45.2188 42.3933 43.2283 43.5787 40.2028L50.9578 21.3699C51.4809 20.035 53.4102 20.1621 53.7536 21.5541V21.5541C54.1159 23.0226 56.1927 23.0525 56.5972 21.5951L60.3867 7.94141C61.1348 5.24588 64.7864 4.83693 66.1122 7.30019V7.30019C66.83 8.63364 68.405 9.25475 69.8397 8.77013L70.6346 8.50161C72.8528 7.75236 75.2467 9.01044 75.8877 11.2622L78.9982 22.1894C79.6644 24.53 82.8441 24.8635 83.9814 22.712V22.712C85.097 20.6018 88.2013 20.8712 88.9366 23.1421L90.366 27.5567C91.8219 32.0532 98.2747 31.776 99.3397 27.1712L101.186 19.1896C101.379 18.3523 102.465 18.1266 102.976 18.8174V18.8174C103.462 19.4729 104.484 19.3102 104.742 18.5365L105.823 15.288C106.758 12.4826 110.843 12.872 111.23 15.8034L112.114 22.4884C112.33 24.1286 114.433 24.6719 115.417 23.342V23.342C116.32 22.1215 118.23 22.4584 118.661 23.9144L118.962 24.9332C119.637 27.2115 122.871 27.1905 123.516 24.9036L125.039 19.5009C125.508 17.8385 127.686 17.4458 128.705 18.84V18.84C129.045 19.3037 129.561 19.6058 130.132 19.6739L136 20.375" stroke="#7B61FF" stroke-width="2" stroke-linecap="round" stroke-linejoin="round"/>
<defs>
<linearGradient id="paint0_linear_3_37" x1="68.581" y1="0.5" x2="68.581" y2="53.5" gradientUnits="userSpaceOnUse">
<stop stop-color="#7B61FF"/>
<stop offset="1" stop-color="#7B61FF" stop-opacity="0"/>
</linearGradient>
</defs>
</svg>
